<?xml version="1.0" encoding="utf-8" standalone="no"?>
<!DOCTYPE svg PUBLIC "-//W3C//DTD SVG 1.1//EN"
  "http://www.w3.org/Graphics/SVG/1.1/DTD/svg11.dtd">
<svg xmlns:xlink="http://www.w3.org/1999/xlink" width="718.56pt" height="497.52pt" viewBox="0 0 718.56 497.52" xmlns="http://www.w3.org/2000/svg" version="1.1">
 <metadata>
  <rdf:RDF xmlns:dc="http://purl.org/dc/elements/1.1/" xmlns:cc="http://creativecommons.org/ns#" xmlns:rdf="http://www.w3.org/1999/02/22-rdf-syntax-ns#">
   <cc:Work>
    <dc:type rdf:resource="http://purl.org/dc/dcmitype/StillImage"/>
    <dc:date>2026-03-14T11:44:34.913874</dc:date>
    <dc:format>image/svg+xml</dc:format>
    <dc:creator>
     <cc:Agent>
      <dc:title>Matplotlib v3.10.8, https://matplotlib.org/</dc:title>
     </cc:Agent>
    </dc:creator>
   </cc:Work>
  </rdf:RDF>
 </metadata>
 <defs>
  <style type="text/css">*{stroke-linejoin: round; stroke-linecap: butt}</style>
 </defs>
 <g id="figure_1">
  <g id="patch_1">
   <path d="M 0 497.52 
L 718.56 497.52 
L 718.56 0 
L 0 0 
z
" style="fill: #f5f5f5"/>
  </g>
  <g id="axes_1">
   <g id="table_1">
    <g id="patch_2">
     <path d="M 7.2 182.397662 
L 324.072 182.397662 
L 324.072 158.865195 
L 7.2 158.865195 
z
" style="fill: #34495e; stroke: #000000; stroke-linejoin: miter"/>
    </g>
    <g id="text_1">
     <!-- Distance Change -->
     <g style="fill: #ffffff" transform="translate(113.503734 173.623772) scale(0.11 -0.11)">
      <defs>
       <path id="DejaVuSans-Bold-44" d="M 1791 3756 
L 1791 909 
L 2222 909 
Q 2959 909 3348 1275 
Q 3738 1641 3738 2338 
Q 3738 3031 3350 3393 
Q 2963 3756 2222 3756 
L 1791 3756 
z
M 588 4666 
L 1856 4666 
Q 2919 4666 3439 4514 
Q 3959 4363 4331 4000 
Q 4659 3684 4818 3271 
Q 4978 2859 4978 2338 
Q 4978 1809 4818 1395 
Q 4659 981 4331 666 
Q 3956 303 3431 151 
Q 2906 0 1856 0 
L 588 0 
L 588 4666 
z
" transform="scale(0.015625)"/>
       <path id="DejaVuSans-Bold-69" d="M 538 3500 
L 1656 3500 
L 1656 0 
L 538 0 
L 538 3500 
z
M 538 4863 
L 1656 4863 
L 1656 3950 
L 538 3950 
L 538 4863 
z
" transform="scale(0.015625)"/>
       <path id="DejaVuSans-Bold-73" d="M 3272 3391 
L 3272 2541 
Q 2913 2691 2578 2766 
Q 2244 2841 1947 2841 
Q 1628 2841 1473 2761 
Q 1319 2681 1319 2516 
Q 1319 2381 1436 2309 
Q 1553 2238 1856 2203 
L 2053 2175 
Q 2913 2066 3209 1816 
Q 3506 1566 3506 1031 
Q 3506 472 3093 190 
Q 2681 -91 1863 -91 
Q 1516 -91 1145 -36 
Q 775 19 384 128 
L 384 978 
Q 719 816 1070 734 
Q 1422 653 1784 653 
Q 2113 653 2278 743 
Q 2444 834 2444 1013 
Q 2444 1163 2330 1236 
Q 2216 1309 1875 1350 
L 1678 1375 
Q 931 1469 631 1722 
Q 331 1975 331 2491 
Q 331 3047 712 3315 
Q 1094 3584 1881 3584 
Q 2191 3584 2531 3537 
Q 2872 3491 3272 3391 
z
" transform="scale(0.015625)"/>
       <path id="DejaVuSans-Bold-74" d="M 1759 4494 
L 1759 3500 
L 2913 3500 
L 2913 2700 
L 1759 2700 
L 1759 1216 
Q 1759 972 1856 886 
Q 1953 800 2241 800 
L 2816 800 
L 2816 0 
L 1856 0 
Q 1194 0 917 276 
Q 641 553 641 1216 
L 641 2700 
L 84 2700 
L 84 3500 
L 641 3500 
L 641 4494 
L 1759 4494 
z
" transform="scale(0.015625)"/>
       <path id="DejaVuSans-Bold-61" d="M 2106 1575 
Q 1756 1575 1579 1456 
Q 1403 1338 1403 1106 
Q 1403 894 1545 773 
Q 1688 653 1941 653 
Q 2256 653 2472 879 
Q 2688 1106 2688 1447 
L 2688 1575 
L 2106 1575 
z
M 3816 1997 
L 3816 0 
L 2688 0 
L 2688 519 
Q 2463 200 2181 54 
Q 1900 -91 1497 -91 
Q 953 -91 614 226 
Q 275 544 275 1050 
Q 275 1666 698 1953 
Q 1122 2241 2028 2241 
L 2688 2241 
L 2688 2328 
Q 2688 2594 2478 2717 
Q 2269 2841 1825 2841 
Q 1466 2841 1156 2769 
Q 847 2697 581 2553 
L 581 3406 
Q 941 3494 1303 3539 
Q 1666 3584 2028 3584 
Q 2975 3584 3395 3211 
Q 3816 2838 3816 1997 
z
" transform="scale(0.015625)"/>
       <path id="DejaVuSans-Bold-6e" d="M 4056 2131 
L 4056 0 
L 2931 0 
L 2931 347 
L 2931 1631 
Q 2931 2084 2911 2256 
Q 2891 2428 2841 2509 
Q 2775 2619 2662 2680 
Q 2550 2741 2406 2741 
Q 2056 2741 1856 2470 
Q 1656 2200 1656 1722 
L 1656 0 
L 538 0 
L 538 3500 
L 1656 3500 
L 1656 2988 
Q 1909 3294 2193 3439 
Q 2478 3584 2822 3584 
Q 3428 3584 3742 3212 
Q 4056 2841 4056 2131 
z
" transform="scale(0.015625)"/>
       <path id="DejaVuSans-Bold-63" d="M 3366 3391 
L 3366 2478 
Q 3138 2634 2908 2709 
Q 2678 2784 2431 2784 
Q 1963 2784 1702 2511 
Q 1441 2238 1441 1747 
Q 1441 1256 1702 982 
Q 1963 709 2431 709 
Q 2694 709 2930 787 
Q 3166 866 3366 1019 
L 3366 103 
Q 3103 6 2833 -42 
Q 2563 -91 2291 -91 
Q 1344 -91 809 395 
Q 275 881 275 1747 
Q 275 2613 809 3098 
Q 1344 3584 2291 3584 
Q 2566 3584 2833 3536 
Q 3100 3488 3366 3391 
z
" transform="scale(0.015625)"/>
       <path id="DejaVuSans-Bold-65" d="M 4031 1759 
L 4031 1441 
L 1416 1441 
Q 1456 1047 1700 850 
Q 1944 653 2381 653 
Q 2734 653 3104 758 
Q 3475 863 3866 1075 
L 3866 213 
Q 3469 63 3072 -14 
Q 2675 -91 2278 -91 
Q 1328 -91 801 392 
Q 275 875 275 1747 
Q 275 2603 792 3093 
Q 1309 3584 2216 3584 
Q 3041 3584 3536 3087 
Q 4031 2591 4031 1759 
z
M 2881 2131 
Q 2881 2450 2695 2645 
Q 2509 2841 2209 2841 
Q 1884 2841 1681 2658 
Q 1478 2475 1428 2131 
L 2881 2131 
z
" transform="scale(0.015625)"/>
       <path id="DejaVuSans-Bold-20" transform="scale(0.015625)"/>
       <path id="DejaVuSans-Bold-43" d="M 4288 256 
Q 3956 84 3597 -3 
Q 3238 -91 2847 -91 
Q 1681 -91 1000 561 
Q 319 1213 319 2328 
Q 319 3447 1000 4098 
Q 1681 4750 2847 4750 
Q 3238 4750 3597 4662 
Q 3956 4575 4288 4403 
L 4288 3438 
Q 3953 3666 3628 3772 
Q 3303 3878 2944 3878 
Q 2300 3878 1931 3465 
Q 1563 3053 1563 2328 
Q 1563 1606 1931 1193 
Q 2300 781 2944 781 
Q 3303 781 3628 887 
Q 3953 994 4288 1222 
L 4288 256 
z
" transform="scale(0.015625)"/>
       <path id="DejaVuSans-Bold-68" d="M 4056 2131 
L 4056 0 
L 2931 0 
L 2931 347 
L 2931 1625 
Q 2931 2084 2911 2256 
Q 2891 2428 2841 2509 
Q 2775 2619 2662 2680 
Q 2550 2741 2406 2741 
Q 2056 2741 1856 2470 
Q 1656 2200 1656 1722 
L 1656 0 
L 538 0 
L 538 4863 
L 1656 4863 
L 1656 2988 
Q 1909 3294 2193 3439 
Q 2478 3584 2822 3584 
Q 3428 3584 3742 3212 
Q 4056 2841 4056 2131 
z
" transform="scale(0.015625)"/>
       <path id="DejaVuSans-Bold-67" d="M 2919 594 
Q 2688 288 2409 144 
Q 2131 0 1766 0 
Q 1125 0 706 504 
Q 288 1009 288 1791 
Q 288 2575 706 3076 
Q 1125 3578 1766 3578 
Q 2131 3578 2409 3434 
Q 2688 3291 2919 2981 
L 2919 3500 
L 4044 3500 
L 4044 353 
Q 4044 -491 3511 -936 
Q 2978 -1381 1966 -1381 
Q 1638 -1381 1331 -1331 
Q 1025 -1281 716 -1178 
L 716 -306 
Q 1009 -475 1290 -558 
Q 1572 -641 1856 -641 
Q 2406 -641 2662 -400 
Q 2919 -159 2919 353 
L 2919 594 
z
M 2181 2772 
Q 1834 2772 1640 2515 
Q 1447 2259 1447 1791 
Q 1447 1309 1634 1061 
Q 1822 813 2181 813 
Q 2531 813 2725 1069 
Q 2919 1325 2919 1791 
Q 2919 2259 2725 2515 
Q 2531 2772 2181 2772 
z
" transform="scale(0.015625)"/>
      </defs>
      <use xlink:href="#DejaVuSans-Bold-44"/>
      <use xlink:href="#DejaVuSans-Bold-69" transform="translate(83.007812 0)"/>
      <use xlink:href="#DejaVuSans-Bold-73" transform="translate(117.285156 0)"/>
      <use xlink:href="#DejaVuSans-Bold-74" transform="translate(176.806641 0)"/>
      <use xlink:href="#DejaVuSans-Bold-61" transform="translate(224.609375 0)"/>
      <use xlink:href="#DejaVuSans-Bold-6e" transform="translate(292.089844 0)"/>
      <use xlink:href="#DejaVuSans-Bold-63" transform="translate(363.28125 0)"/>
      <use xlink:href="#DejaVuSans-Bold-65" transform="translate(422.558594 0)"/>
      <use xlink:href="#DejaVuSans-Bold-20" transform="translate(490.380859 0)"/>
      <use xlink:href="#DejaVuSans-Bold-43" transform="translate(525.195312 0)"/>
      <use xlink:href="#DejaVuSans-Bold-68" transform="translate(598.583984 0)"/>
      <use xlink:href="#DejaVuSans-Bold-61" transform="translate(669.775391 0)"/>
      <use xlink:href="#DejaVuSans-Bold-6e" transform="translate(737.255859 0)"/>
      <use xlink:href="#DejaVuSans-Bold-67" transform="translate(808.447266 0)"/>
      <use xlink:href="#DejaVuSans-Bold-65" transform="translate(880.029297 0)"/>
     </g>
    </g>
    <g id="patch_3">
     <path d="M 324.072 182.397662 
L 711.36 182.397662 
L 711.36 158.865195 
L 324.072 158.865195 
z
" style="fill: #34495e; stroke: #000000; stroke-linejoin: miter"/>
    </g>
    <g id="text_2">
     <!-- Time Change (Air @ 240 km/h) -->
     <g style="fill: #ffffff" transform="translate(423.622172 173.623772) scale(0.11 -0.11)">
      <defs>
       <path id="DejaVuSans-Bold-54" d="M 31 4666 
L 4331 4666 
L 4331 3756 
L 2784 3756 
L 2784 0 
L 1581 0 
L 1581 3756 
L 31 3756 
L 31 4666 
z
" transform="scale(0.015625)"/>
       <path id="DejaVuSans-Bold-6d" d="M 3781 2919 
Q 3994 3244 4286 3414 
Q 4578 3584 4928 3584 
Q 5531 3584 5847 3212 
Q 6163 2841 6163 2131 
L 6163 0 
L 5038 0 
L 5038 1825 
Q 5041 1866 5042 1909 
Q 5044 1953 5044 2034 
Q 5044 2406 4934 2573 
Q 4825 2741 4581 2741 
Q 4263 2741 4089 2478 
Q 3916 2216 3909 1719 
L 3909 0 
L 2784 0 
L 2784 1825 
Q 2784 2406 2684 2573 
Q 2584 2741 2328 2741 
Q 2006 2741 1831 2477 
Q 1656 2213 1656 1722 
L 1656 0 
L 531 0 
L 531 3500 
L 1656 3500 
L 1656 2988 
Q 1863 3284 2130 3434 
Q 2397 3584 2719 3584 
Q 3081 3584 3359 3409 
Q 3638 3234 3781 2919 
z
" transform="scale(0.015625)"/>
       <path id="DejaVuSans-Bold-28" d="M 2413 -844 
L 1484 -844 
Q 1006 -72 778 623 
Q 550 1319 550 2003 
Q 550 2688 779 3389 
Q 1009 4091 1484 4856 
L 2413 4856 
Q 2013 4116 1813 3408 
Q 1613 2700 1613 2009 
Q 1613 1319 1811 609 
Q 2009 -100 2413 -844 
z
" transform="scale(0.015625)"/>
       <path id="DejaVuSans-Bold-41" d="M 3419 850 
L 1538 850 
L 1241 0 
L 31 0 
L 1759 4666 
L 3194 4666 
L 4922 0 
L 3713 0 
L 3419 850 
z
M 1838 1716 
L 3116 1716 
L 2478 3572 
L 1838 1716 
z
" transform="scale(0.015625)"/>
       <path id="DejaVuSans-Bold-72" d="M 3138 2547 
Q 2991 2616 2845 2648 
Q 2700 2681 2553 2681 
Q 2122 2681 1889 2404 
Q 1656 2128 1656 1613 
L 1656 0 
L 538 0 
L 538 3500 
L 1656 3500 
L 1656 2925 
Q 1872 3269 2151 3426 
Q 2431 3584 2822 3584 
Q 2878 3584 2943 3579 
Q 3009 3575 3134 3559 
L 3138 2547 
z
" transform="scale(0.015625)"/>
       <path id="DejaVuSans-Bold-40" d="M 2597 1684 
Q 2597 1300 2761 1078 
Q 2925 856 3206 856 
Q 3484 856 3650 1079 
Q 3816 1303 3816 1684 
Q 3816 2063 3648 2283 
Q 3481 2503 3200 2503 
Q 2925 2503 2761 2283 
Q 2597 2063 2597 1684 
z
M 3878 744 
Q 3784 522 3576 398 
Q 3369 275 3091 275 
Q 2553 275 2217 664 
Q 1881 1053 1881 1678 
Q 1881 2303 2218 2693 
Q 2556 3084 3091 3084 
Q 3369 3084 3576 2959 
Q 3784 2834 3878 2613 
L 3878 3022 
L 4531 3022 
L 4531 856 
Q 4919 916 5141 1230 
Q 5363 1544 5363 2034 
Q 5363 2347 5272 2620 
Q 5181 2894 4997 3122 
Q 4700 3503 4254 3709 
Q 3809 3916 3291 3916 
Q 2928 3916 2597 3820 
Q 2266 3725 1984 3541 
Q 1522 3234 1264 2748 
Q 1006 2263 1006 1697 
Q 1006 1231 1173 823 
Q 1341 416 1656 103 
Q 1969 -203 2373 -364 
Q 2778 -525 3238 -525 
Q 3631 -525 4025 -378 
Q 4419 -231 4697 19 
L 5031 -488 
Q 4641 -791 4180 -952 
Q 3719 -1113 3244 -1113 
Q 2666 -1113 2153 -908 
Q 1641 -703 1241 -313 
Q 841 78 631 592 
Q 422 1106 422 1697 
Q 422 2266 634 2781 
Q 847 3297 1241 3688 
Q 1634 4075 2157 4287 
Q 2681 4500 3244 4500 
Q 3944 4500 4516 4233 
Q 5088 3966 5472 3463 
Q 5706 3156 5826 2798 
Q 5947 2441 5947 2047 
Q 5947 1200 5437 731 
Q 4928 263 4000 263 
L 3878 263 
L 3878 744 
z
" transform="scale(0.015625)"/>
       <path id="DejaVuSans-Bold-32" d="M 1844 884 
L 3897 884 
L 3897 0 
L 506 0 
L 506 884 
L 2209 2388 
Q 2438 2594 2547 2791 
Q 2656 2988 2656 3200 
Q 2656 3528 2436 3728 
Q 2216 3928 1850 3928 
Q 1569 3928 1234 3808 
Q 900 3688 519 3450 
L 519 4475 
Q 925 4609 1322 4679 
Q 1719 4750 2100 4750 
Q 2938 4750 3402 4381 
Q 3866 4013 3866 3353 
Q 3866 2972 3669 2642 
Q 3472 2313 2841 1759 
L 1844 884 
z
" transform="scale(0.015625)"/>
       <path id="DejaVuSans-Bold-34" d="M 2356 3675 
L 1038 1722 
L 2356 1722 
L 2356 3675 
z
M 2156 4666 
L 3494 4666 
L 3494 1722 
L 4159 1722 
L 4159 850 
L 3494 850 
L 3494 0 
L 2356 0 
L 2356 850 
L 288 850 
L 288 1881 
L 2156 4666 
z
" transform="scale(0.015625)"/>
       <path id="DejaVuSans-Bold-30" d="M 2944 2338 
Q 2944 3213 2780 3570 
Q 2616 3928 2228 3928 
Q 1841 3928 1675 3570 
Q 1509 3213 1509 2338 
Q 1509 1453 1675 1090 
Q 1841 728 2228 728 
Q 2613 728 2778 1090 
Q 2944 1453 2944 2338 
z
M 4147 2328 
Q 4147 1169 3647 539 
Q 3147 -91 2228 -91 
Q 1306 -91 806 539 
Q 306 1169 306 2328 
Q 306 3491 806 4120 
Q 1306 4750 2228 4750 
Q 3147 4750 3647 4120 
Q 4147 3491 4147 2328 
z
" transform="scale(0.015625)"/>
       <path id="DejaVuSans-Bold-6b" d="M 538 4863 
L 1656 4863 
L 1656 2216 
L 2944 3500 
L 4244 3500 
L 2534 1894 
L 4378 0 
L 3022 0 
L 1656 1459 
L 1656 0 
L 538 0 
L 538 4863 
z
" transform="scale(0.015625)"/>
       <path id="DejaVuSans-Bold-2f" d="M 1644 4666 
L 2338 4666 
L 691 -594 
L 0 -594 
L 1644 4666 
z
" transform="scale(0.015625)"/>
       <path id="DejaVuSans-Bold-29" d="M 513 -844 
Q 913 -100 1113 609 
Q 1313 1319 1313 2009 
Q 1313 2700 1113 3408 
Q 913 4116 513 4856 
L 1441 4856 
Q 1916 4091 2145 3389 
Q 2375 2688 2375 2003 
Q 2375 1319 2147 623 
Q 1919 -72 1441 -844 
L 513 -844 
z
" transform="scale(0.015625)"/>
      </defs>
      <use xlink:href="#DejaVuSans-Bold-54"/>
      <use xlink:href="#DejaVuSans-Bold-69" transform="translate(68.212891 0)"/>
      <use xlink:href="#DejaVuSans-Bold-6d" transform="translate(102.490234 0)"/>
      <use xlink:href="#DejaVuSans-Bold-65" transform="translate(206.689453 0)"/>
      <use xlink:href="#DejaVuSans-Bold-20" transform="translate(274.511719 0)"/>
      <use xlink:href="#DejaVuSans-Bold-43" transform="translate(309.326172 0)"/>
      <use xlink:href="#DejaVuSans-Bold-68" transform="translate(382.714844 0)"/>
      <use xlink:href="#DejaVuSans-Bold-61" transform="translate(453.90625 0)"/>
      <use xlink:href="#DejaVuSans-Bold-6e" transform="translate(521.386719 0)"/>
      <use xlink:href="#DejaVuSans-Bold-67" transform="translate(592.578125 0)"/>
      <use xlink:href="#DejaVuSans-Bold-65" transform="translate(664.160156 0)"/>
      <use xlink:href="#DejaVuSans-Bold-20" transform="translate(731.982422 0)"/>
      <use xlink:href="#DejaVuSans-Bold-28" transform="translate(766.796875 0)"/>
      <use xlink:href="#DejaVuSans-Bold-41" transform="translate(812.5 0)"/>
      <use xlink:href="#DejaVuSans-Bold-69" transform="translate(889.892578 0)"/>
      <use xlink:href="#DejaVuSans-Bold-72" transform="translate(924.169922 0)"/>
      <use xlink:href="#DejaVuSans-Bold-20" transform="translate(973.486328 0)"/>
      <use xlink:href="#DejaVuSans-Bold-40" transform="translate(1008.300781 0)"/>
      <use xlink:href="#DejaVuSans-Bold-20" transform="translate(1108.300781 0)"/>
      <use xlink:href="#DejaVuSans-Bold-32" transform="translate(1143.115234 0)"/>
      <use xlink:href="#DejaVuSans-Bold-34" transform="translate(1212.695312 0)"/>
      <use xlink:href="#DejaVuSans-Bold-30" transform="translate(1282.275391 0)"/>
      <use xlink:href="#DejaVuSans-Bold-20" transform="translate(1351.855469 0)"/>
      <use xlink:href="#DejaVuSans-Bold-6b" transform="translate(1386.669922 0)"/>
      <use xlink:href="#DejaVuSans-Bold-6d" transform="translate(1453.173828 0)"/>
      <use xlink:href="#DejaVuSans-Bold-2f" transform="translate(1557.373047 0)"/>
      <use xlink:href="#DejaVuSans-Bold-68" transform="translate(1593.896484 0)"/>
      <use xlink:href="#DejaVuSans-Bold-29" transform="translate(1665.087891 0)"/>
     </g>
    </g>
    <g id="patch_4">
     <path d="M 7.2 205.93013 
L 324.072 205.93013 
L 324.072 182.397662 
L 7.2 182.397662 
z
" style="fill: #e8f5e9; stroke: #000000; stroke-linejoin: miter"/>
    </g>
    <g id="text_3">
     <!-- 1 km closer -->
     <g transform="translate(133.670687 197.199209) scale(0.11 -0.11)">
      <defs>
       <path id="DejaVuSans-31" d="M 794 531 
L 1825 531 
L 1825 4091 
L 703 3866 
L 703 4441 
L 1819 4666 
L 2450 4666 
L 2450 531 
L 3481 531 
L 3481 0 
L 794 0 
L 794 531 
z
" transform="scale(0.015625)"/>
       <path id="DejaVuSans-20" transform="scale(0.015625)"/>
       <path id="DejaVuSans-6b" d="M 581 4863 
L 1159 4863 
L 1159 1991 
L 2875 3500 
L 3609 3500 
L 1753 1863 
L 3688 0 
L 2938 0 
L 1159 1709 
L 1159 0 
L 581 0 
L 581 4863 
z
" transform="scale(0.015625)"/>
       <path id="DejaVuSans-6d" d="M 3328 2828 
Q 3544 3216 3844 3400 
Q 4144 3584 4550 3584 
Q 5097 3584 5394 3201 
Q 5691 2819 5691 2113 
L 5691 0 
L 5113 0 
L 5113 2094 
Q 5113 2597 4934 2840 
Q 4756 3084 4391 3084 
Q 3944 3084 3684 2787 
Q 3425 2491 3425 1978 
L 3425 0 
L 2847 0 
L 2847 2094 
Q 2847 2600 2669 2842 
Q 2491 3084 2119 3084 
Q 1678 3084 1418 2786 
Q 1159 2488 1159 1978 
L 1159 0 
L 581 0 
L 581 3500 
L 1159 3500 
L 1159 2956 
Q 1356 3278 1631 3431 
Q 1906 3584 2284 3584 
Q 2666 3584 2933 3390 
Q 3200 3197 3328 2828 
z
" transform="scale(0.015625)"/>
       <path id="DejaVuSans-63" d="M 3122 3366 
L 3122 2828 
Q 2878 2963 2633 3030 
Q 2388 3097 2138 3097 
Q 1578 3097 1268 2742 
Q 959 2388 959 1747 
Q 959 1106 1268 751 
Q 1578 397 2138 397 
Q 2388 397 2633 464 
Q 2878 531 3122 666 
L 3122 134 
Q 2881 22 2623 -34 
Q 2366 -91 2075 -91 
Q 1284 -91 818 406 
Q 353 903 353 1747 
Q 353 2603 823 3093 
Q 1294 3584 2113 3584 
Q 2378 3584 2631 3529 
Q 2884 3475 3122 3366 
z
" transform="scale(0.015625)"/>
       <path id="DejaVuSans-6c" d="M 603 4863 
L 1178 4863 
L 1178 0 
L 603 0 
L 603 4863 
z
" transform="scale(0.015625)"/>
       <path id="DejaVuSans-6f" d="M 1959 3097 
Q 1497 3097 1228 2736 
Q 959 2375 959 1747 
Q 959 1119 1226 758 
Q 1494 397 1959 397 
Q 2419 397 2687 759 
Q 2956 1122 2956 1747 
Q 2956 2369 2687 2733 
Q 2419 3097 1959 3097 
z
M 1959 3584 
Q 2709 3584 3137 3096 
Q 3566 2609 3566 1747 
Q 3566 888 3137 398 
Q 2709 -91 1959 -91 
Q 1206 -91 779 398 
Q 353 888 353 1747 
Q 353 2609 779 3096 
Q 1206 3584 1959 3584 
z
" transform="scale(0.015625)"/>
       <path id="DejaVuSans-73" d="M 2834 3397 
L 2834 2853 
Q 2591 2978 2328 3040 
Q 2066 3103 1784 3103 
Q 1356 3103 1142 2972 
Q 928 2841 928 2578 
Q 928 2378 1081 2264 
Q 1234 2150 1697 2047 
L 1894 2003 
Q 2506 1872 2764 1633 
Q 3022 1394 3022 966 
Q 3022 478 2636 193 
Q 2250 -91 1575 -91 
Q 1294 -91 989 -36 
Q 684 19 347 128 
L 347 722 
Q 666 556 975 473 
Q 1284 391 1588 391 
Q 1994 391 2212 530 
Q 2431 669 2431 922 
Q 2431 1156 2273 1281 
Q 2116 1406 1581 1522 
L 1381 1569 
Q 847 1681 609 1914 
Q 372 2147 372 2553 
Q 372 3047 722 3315 
Q 1072 3584 1716 3584 
Q 2034 3584 2315 3537 
Q 2597 3491 2834 3397 
z
" transform="scale(0.015625)"/>
       <path id="DejaVuSans-65" d="M 3597 1894 
L 3597 1613 
L 953 1613 
Q 991 1019 1311 708 
Q 1631 397 2203 397 
Q 2534 397 2845 478 
Q 3156 559 3463 722 
L 3463 178 
Q 3153 47 2828 -22 
Q 2503 -91 2169 -91 
Q 1331 -91 842 396 
Q 353 884 353 1716 
Q 353 2575 817 3079 
Q 1281 3584 2069 3584 
Q 2775 3584 3186 3129 
Q 3597 2675 3597 1894 
z
M 3022 2063 
Q 3016 2534 2758 2815 
Q 2500 3097 2075 3097 
Q 1594 3097 1305 2825 
Q 1016 2553 972 2059 
L 3022 2063 
z
" transform="scale(0.015625)"/>
       <path id="DejaVuSans-72" d="M 2631 2963 
Q 2534 3019 2420 3045 
Q 2306 3072 2169 3072 
Q 1681 3072 1420 2755 
Q 1159 2438 1159 1844 
L 1159 0 
L 581 0 
L 581 3500 
L 1159 3500 
L 1159 2956 
Q 1341 3275 1631 3429 
Q 1922 3584 2338 3584 
Q 2397 3584 2469 3576 
Q 2541 3569 2628 3553 
L 2631 2963 
z
" transform="scale(0.015625)"/>
      </defs>
      <use xlink:href="#DejaVuSans-31"/>
      <use xlink:href="#DejaVuSans-20" transform="translate(63.623047 0)"/>
      <use xlink:href="#DejaVuSans-6b" transform="translate(95.410156 0)"/>
      <use xlink:href="#DejaVuSans-6d" transform="translate(153.320312 0)"/>
      <use xlink:href="#DejaVuSans-20" transform="translate(250.732422 0)"/>
      <use xlink:href="#DejaVuSans-63" transform="translate(282.519531 0)"/>
      <use xlink:href="#DejaVuSans-6c" transform="translate(337.5 0)"/>
      <use xlink:href="#DejaVuSans-6f" transform="translate(365.283203 0)"/>
      <use xlink:href="#DejaVuSans-73" transform="translate(426.464844 0)"/>
      <use xlink:href="#DejaVuSans-65" transform="translate(478.564453 0)"/>
      <use xlink:href="#DejaVuSans-72" transform="translate(540.087891 0)"/>
     </g>
    </g>
    <g id="patch_5">
     <path d="M 324.072 205.93013 
L 711.36 205.93013 
L 711.36 182.397662 
L 324.072 182.397662 
z
" style="fill: #e8f5e9; stroke: #000000; stroke-linejoin: miter"/>
    </g>
    <g id="text_4">
     <!-- −0.2 min (faster) -->
     <g transform="translate(470.228656 197.199209) scale(0.11 -0.11)">
      <defs>
       <path id="DejaVuSans-2212" d="M 678 2272 
L 4684 2272 
L 4684 1741 
L 678 1741 
L 678 2272 
z
" transform="scale(0.015625)"/>
       <path id="DejaVuSans-30" d="M 2034 4250 
Q 1547 4250 1301 3770 
Q 1056 3291 1056 2328 
Q 1056 1369 1301 889 
Q 1547 409 2034 409 
Q 2525 409 2770 889 
Q 3016 1369 3016 2328 
Q 3016 3291 2770 3770 
Q 2525 4250 2034 4250 
z
M 2034 4750 
Q 2819 4750 3233 4129 
Q 3647 3509 3647 2328 
Q 3647 1150 3233 529 
Q 2819 -91 2034 -91 
Q 1250 -91 836 529 
Q 422 1150 422 2328 
Q 422 3509 836 4129 
Q 1250 4750 2034 4750 
z
" transform="scale(0.015625)"/>
       <path id="DejaVuSans-2e" d="M 684 794 
L 1344 794 
L 1344 0 
L 684 0 
L 684 794 
z
" transform="scale(0.015625)"/>
       <path id="DejaVuSans-32" d="M 1228 531 
L 3431 531 
L 3431 0 
L 469 0 
L 469 531 
Q 828 903 1448 1529 
Q 2069 2156 2228 2338 
Q 2531 2678 2651 2914 
Q 2772 3150 2772 3378 
Q 2772 3750 2511 3984 
Q 2250 4219 1831 4219 
Q 1534 4219 1204 4116 
Q 875 4013 500 3803 
L 500 4441 
Q 881 4594 1212 4672 
Q 1544 4750 1819 4750 
Q 2544 4750 2975 4387 
Q 3406 4025 3406 3419 
Q 3406 3131 3298 2873 
Q 3191 2616 2906 2266 
Q 2828 2175 2409 1742 
Q 1991 1309 1228 531 
z
" transform="scale(0.015625)"/>
       <path id="DejaVuSans-69" d="M 603 3500 
L 1178 3500 
L 1178 0 
L 603 0 
L 603 3500 
z
M 603 4863 
L 1178 4863 
L 1178 4134 
L 603 4134 
L 603 4863 
z
" transform="scale(0.015625)"/>
       <path id="DejaVuSans-6e" d="M 3513 2113 
L 3513 0 
L 2938 0 
L 2938 2094 
Q 2938 2591 2744 2837 
Q 2550 3084 2163 3084 
Q 1697 3084 1428 2787 
Q 1159 2491 1159 1978 
L 1159 0 
L 581 0 
L 581 3500 
L 1159 3500 
L 1159 2956 
Q 1366 3272 1645 3428 
Q 1925 3584 2291 3584 
Q 2894 3584 3203 3211 
Q 3513 2838 3513 2113 
z
" transform="scale(0.015625)"/>
       <path id="DejaVuSans-28" d="M 1984 4856 
Q 1566 4138 1362 3434 
Q 1159 2731 1159 2009 
Q 1159 1288 1364 580 
Q 1569 -128 1984 -844 
L 1484 -844 
Q 1016 -109 783 600 
Q 550 1309 550 2009 
Q 550 2706 781 3412 
Q 1013 4119 1484 4856 
L 1984 4856 
z
" transform="scale(0.015625)"/>
       <path id="DejaVuSans-66" d="M 2375 4863 
L 2375 4384 
L 1825 4384 
Q 1516 4384 1395 4259 
Q 1275 4134 1275 3809 
L 1275 3500 
L 2222 3500 
L 2222 3053 
L 1275 3053 
L 1275 0 
L 697 0 
L 697 3053 
L 147 3053 
L 147 3500 
L 697 3500 
L 697 3744 
Q 697 4328 969 4595 
Q 1241 4863 1831 4863 
L 2375 4863 
z
" transform="scale(0.015625)"/>
       <path id="DejaVuSans-61" d="M 2194 1759 
Q 1497 1759 1228 1600 
Q 959 1441 959 1056 
Q 959 750 1161 570 
Q 1363 391 1709 391 
Q 2188 391 2477 730 
Q 2766 1069 2766 1631 
L 2766 1759 
L 2194 1759 
z
M 3341 1997 
L 3341 0 
L 2766 0 
L 2766 531 
Q 2569 213 2275 61 
Q 1981 -91 1556 -91 
Q 1019 -91 701 211 
Q 384 513 384 1019 
Q 384 1609 779 1909 
Q 1175 2209 1959 2209 
L 2766 2209 
L 2766 2266 
Q 2766 2663 2505 2880 
Q 2244 3097 1772 3097 
Q 1472 3097 1187 3025 
Q 903 2953 641 2809 
L 641 3341 
Q 956 3463 1253 3523 
Q 1550 3584 1831 3584 
Q 2591 3584 2966 3190 
Q 3341 2797 3341 1997 
z
" transform="scale(0.015625)"/>
       <path id="DejaVuSans-74" d="M 1172 4494 
L 1172 3500 
L 2356 3500 
L 2356 3053 
L 1172 3053 
L 1172 1153 
Q 1172 725 1289 603 
Q 1406 481 1766 481 
L 2356 481 
L 2356 0 
L 1766 0 
Q 1100 0 847 248 
Q 594 497 594 1153 
L 594 3053 
L 172 3053 
L 172 3500 
L 594 3500 
L 594 4494 
L 1172 4494 
z
" transform="scale(0.015625)"/>
       <path id="DejaVuSans-29" d="M 513 4856 
L 1013 4856 
Q 1481 4119 1714 3412 
Q 1947 2706 1947 2009 
Q 1947 1309 1714 600 
Q 1481 -109 1013 -844 
L 513 -844 
Q 928 -128 1133 580 
Q 1338 1288 1338 2009 
Q 1338 2731 1133 3434 
Q 928 4138 513 4856 
z
" transform="scale(0.015625)"/>
      </defs>
      <use xlink:href="#DejaVuSans-2212"/>
      <use xlink:href="#DejaVuSans-30" transform="translate(83.789062 0)"/>
      <use xlink:href="#DejaVuSans-2e" transform="translate(147.412109 0)"/>
      <use xlink:href="#DejaVuSans-32" transform="translate(179.199219 0)"/>
      <use xlink:href="#DejaVuSans-20" transform="translate(242.822266 0)"/>
      <use xlink:href="#DejaVuSans-6d" transform="translate(274.609375 0)"/>
      <use xlink:href="#DejaVuSans-69" transform="translate(372.021484 0)"/>
      <use xlink:href="#DejaVuSans-6e" transform="translate(399.804688 0)"/>
      <use xlink:href="#DejaVuSans-20" transform="translate(463.183594 0)"/>
      <use xlink:href="#DejaVuSans-28" transform="translate(494.970703 0)"/>
      <use xlink:href="#DejaVuSans-66" transform="translate(533.984375 0)"/>
      <use xlink:href="#DejaVuSans-61" transform="translate(569.189453 0)"/>
      <use xlink:href="#DejaVuSans-73" transform="translate(630.46875 0)"/>
      <use xlink:href="#DejaVuSans-74" transform="translate(682.568359 0)"/>
      <use xlink:href="#DejaVuSans-65" transform="translate(721.777344 0)"/>
      <use xlink:href="#DejaVuSans-72" transform="translate(783.300781 0)"/>
      <use xlink:href="#DejaVuSans-29" transform="translate(824.414062 0)"/>
     </g>
    </g>
    <g id="patch_6">
     <path d="M 7.2 229.462597 
L 324.072 229.462597 
L 324.072 205.93013 
L 7.2 205.93013 
z
" style="fill: #e8f5e9; stroke: #000000; stroke-linejoin: miter"/>
    </g>
    <g id="text_5">
     <!-- 5 km closer -->
     <g transform="translate(133.670687 220.731676) scale(0.11 -0.11)">
      <defs>
       <path id="DejaVuSans-35" d="M 691 4666 
L 3169 4666 
L 3169 4134 
L 1269 4134 
L 1269 2991 
Q 1406 3038 1543 3061 
Q 1681 3084 1819 3084 
Q 2600 3084 3056 2656 
Q 3513 2228 3513 1497 
Q 3513 744 3044 326 
Q 2575 -91 1722 -91 
Q 1428 -91 1123 -41 
Q 819 9 494 109 
L 494 744 
Q 775 591 1075 516 
Q 1375 441 1709 441 
Q 2250 441 2565 725 
Q 2881 1009 2881 1497 
Q 2881 1984 2565 2268 
Q 2250 2553 1709 2553 
Q 1456 2553 1204 2497 
Q 953 2441 691 2322 
L 691 4666 
z
" transform="scale(0.015625)"/>
      </defs>
      <use xlink:href="#DejaVuSans-35"/>
      <use xlink:href="#DejaVuSans-20" transform="translate(63.623047 0)"/>
      <use xlink:href="#DejaVuSans-6b" transform="translate(95.410156 0)"/>
      <use xlink:href="#DejaVuSans-6d" transform="translate(153.320312 0)"/>
      <use xlink:href="#DejaVuSans-20" transform="translate(250.732422 0)"/>
      <use xlink:href="#DejaVuSans-63" transform="translate(282.519531 0)"/>
      <use xlink:href="#DejaVuSans-6c" transform="translate(337.5 0)"/>
      <use xlink:href="#DejaVuSans-6f" transform="translate(365.283203 0)"/>
      <use xlink:href="#DejaVuSans-73" transform="translate(426.464844 0)"/>
      <use xlink:href="#DejaVuSans-65" transform="translate(478.564453 0)"/>
      <use xlink:href="#DejaVuSans-72" transform="translate(540.087891 0)"/>
     </g>
    </g>
    <g id="patch_7">
     <path d="M 324.072 229.462597 
L 711.36 229.462597 
L 711.36 205.93013 
L 324.072 205.93013 
z
" style="fill: #e8f5e9; stroke: #000000; stroke-linejoin: miter"/>
    </g>
    <g id="text_6">
     <!-- −1.2 min (faster) -->
     <g transform="translate(470.228656 220.731676) scale(0.11 -0.11)">
      <use xlink:href="#DejaVuSans-2212"/>
      <use xlink:href="#DejaVuSans-31" transform="translate(83.789062 0)"/>
      <use xlink:href="#DejaVuSans-2e" transform="translate(147.412109 0)"/>
      <use xlink:href="#DejaVuSans-32" transform="translate(179.199219 0)"/>
      <use xlink:href="#DejaVuSans-20" transform="translate(242.822266 0)"/>
      <use xlink:href="#DejaVuSans-6d" transform="translate(274.609375 0)"/>
      <use xlink:href="#DejaVuSans-69" transform="translate(372.021484 0)"/>
      <use xlink:href="#DejaVuSans-6e" transform="translate(399.804688 0)"/>
      <use xlink:href="#DejaVuSans-20" transform="translate(463.183594 0)"/>
      <use xlink:href="#DejaVuSans-28" transform="translate(494.970703 0)"/>
      <use xlink:href="#DejaVuSans-66" transform="translate(533.984375 0)"/>
      <use xlink:href="#DejaVuSans-61" transform="translate(569.189453 0)"/>
      <use xlink:href="#DejaVuSans-73" transform="translate(630.46875 0)"/>
      <use xlink:href="#DejaVuSans-74" transform="translate(682.568359 0)"/>
      <use xlink:href="#DejaVuSans-65" transform="translate(721.777344 0)"/>
      <use xlink:href="#DejaVuSans-72" transform="translate(783.300781 0)"/>
      <use xlink:href="#DejaVuSans-29" transform="translate(824.414062 0)"/>
     </g>
    </g>
    <g id="patch_8">
     <path d="M 7.2 252.995065 
L 324.072 252.995065 
L 324.072 229.462597 
L 7.2 229.462597 
z
" style="fill: #e8f5e9; stroke: #000000; stroke-linejoin: miter"/>
    </g>
    <g id="text_7">
     <!-- 10 km closer -->
     <g transform="translate(130.171312 244.264144) scale(0.11 -0.11)">
      <use xlink:href="#DejaVuSans-31"/>
      <use xlink:href="#DejaVuSans-30" transform="translate(63.623047 0)"/>
      <use xlink:href="#DejaVuSans-20" transform="translate(127.246094 0)"/>
      <use xlink:href="#DejaVuSans-6b" transform="translate(159.033203 0)"/>
      <use xlink:href="#DejaVuSans-6d" transform="translate(216.943359 0)"/>
      <use xlink:href="#DejaVuSans-20" transform="translate(314.355469 0)"/>
      <use xlink:href="#DejaVuSans-63" transform="translate(346.142578 0)"/>
      <use xlink:href="#DejaVuSans-6c" transform="translate(401.123047 0)"/>
      <use xlink:href="#DejaVuSans-6f" transform="translate(428.90625 0)"/>
      <use xlink:href="#DejaVuSans-73" transform="translate(490.087891 0)"/>
      <use xlink:href="#DejaVuSans-65" transform="translate(542.1875 0)"/>
      <use xlink:href="#DejaVuSans-72" transform="translate(603.710938 0)"/>
     </g>
    </g>
    <g id="patch_9">
     <path d="M 324.072 252.995065 
L 711.36 252.995065 
L 711.36 229.462597 
L 324.072 229.462597 
z
" style="fill: #e8f5e9; stroke: #000000; stroke-linejoin: miter"/>
    </g>
    <g id="text_8">
     <!-- −2.5 min (faster) -->
     <g transform="translate(470.228656 244.264144) scale(0.11 -0.11)">
      <use xlink:href="#DejaVuSans-2212"/>
      <use xlink:href="#DejaVuSans-32" transform="translate(83.789062 0)"/>
      <use xlink:href="#DejaVuSans-2e" transform="translate(147.412109 0)"/>
      <use xlink:href="#DejaVuSans-35" transform="translate(179.199219 0)"/>
      <use xlink:href="#DejaVuSans-20" transform="translate(242.822266 0)"/>
      <use xlink:href="#DejaVuSans-6d" transform="translate(274.609375 0)"/>
      <use xlink:href="#DejaVuSans-69" transform="translate(372.021484 0)"/>
      <use xlink:href="#DejaVuSans-6e" transform="translate(399.804688 0)"/>
      <use xlink:href="#DejaVuSans-20" transform="translate(463.183594 0)"/>
      <use xlink:href="#DejaVuSans-28" transform="translate(494.970703 0)"/>
      <use xlink:href="#DejaVuSans-66" transform="translate(533.984375 0)"/>
      <use xlink:href="#DejaVuSans-61" transform="translate(569.189453 0)"/>
      <use xlink:href="#DejaVuSans-73" transform="translate(630.46875 0)"/>
      <use xlink:href="#DejaVuSans-74" transform="translate(682.568359 0)"/>
      <use xlink:href="#DejaVuSans-65" transform="translate(721.777344 0)"/>
      <use xlink:href="#DejaVuSans-72" transform="translate(783.300781 0)"/>
      <use xlink:href="#DejaVuSans-29" transform="translate(824.414062 0)"/>
     </g>
    </g>
    <g id="patch_10">
     <path d="M 7.2 276.527532 
L 324.072 276.527532 
L 324.072 252.995065 
L 7.2 252.995065 
z
" style="fill: #e8f5e9; stroke: #000000; stroke-linejoin: miter"/>
    </g>
    <g id="text_9">
     <!-- 25 km closer -->
     <g transform="translate(130.171312 267.796611) scale(0.11 -0.11)">
      <use xlink:href="#DejaVuSans-32"/>
      <use xlink:href="#DejaVuSans-35" transform="translate(63.623047 0)"/>
      <use xlink:href="#DejaVuSans-20" transform="translate(127.246094 0)"/>
      <use xlink:href="#DejaVuSans-6b" transform="translate(159.033203 0)"/>
      <use xlink:href="#DejaVuSans-6d" transform="translate(216.943359 0)"/>
      <use xlink:href="#DejaVuSans-20" transform="translate(314.355469 0)"/>
      <use xlink:href="#DejaVuSans-63" transform="translate(346.142578 0)"/>
      <use xlink:href="#DejaVuSans-6c" transform="translate(401.123047 0)"/>
      <use xlink:href="#DejaVuSans-6f" transform="translate(428.90625 0)"/>
      <use xlink:href="#DejaVuSans-73" transform="translate(490.087891 0)"/>
      <use xlink:href="#DejaVuSans-65" transform="translate(542.1875 0)"/>
      <use xlink:href="#DejaVuSans-72" transform="translate(603.710938 0)"/>
     </g>
    </g>
    <g id="patch_11">
     <path d="M 324.072 276.527532 
L 711.36 276.527532 
L 711.36 252.995065 
L 324.072 252.995065 
z
" style="fill: #e8f5e9; stroke: #000000; stroke-linejoin: miter"/>
    </g>
    <g id="text_10">
     <!-- −6.2 min (faster) -->
     <g transform="translate(470.228656 267.796611) scale(0.11 -0.11)">
      <defs>
       <path id="DejaVuSans-36" d="M 2113 2584 
Q 1688 2584 1439 2293 
Q 1191 2003 1191 1497 
Q 1191 994 1439 701 
Q 1688 409 2113 409 
Q 2538 409 2786 701 
Q 3034 994 3034 1497 
Q 3034 2003 2786 2293 
Q 2538 2584 2113 2584 
z
M 3366 4563 
L 3366 3988 
Q 3128 4100 2886 4159 
Q 2644 4219 2406 4219 
Q 1781 4219 1451 3797 
Q 1122 3375 1075 2522 
Q 1259 2794 1537 2939 
Q 1816 3084 2150 3084 
Q 2853 3084 3261 2657 
Q 3669 2231 3669 1497 
Q 3669 778 3244 343 
Q 2819 -91 2113 -91 
Q 1303 -91 875 529 
Q 447 1150 447 2328 
Q 447 3434 972 4092 
Q 1497 4750 2381 4750 
Q 2619 4750 2861 4703 
Q 3103 4656 3366 4563 
z
" transform="scale(0.015625)"/>
      </defs>
      <use xlink:href="#DejaVuSans-2212"/>
      <use xlink:href="#DejaVuSans-36" transform="translate(83.789062 0)"/>
      <use xlink:href="#DejaVuSans-2e" transform="translate(147.412109 0)"/>
      <use xlink:href="#DejaVuSans-32" transform="translate(179.199219 0)"/>
      <use xlink:href="#DejaVuSans-20" transform="translate(242.822266 0)"/>
      <use xlink:href="#DejaVuSans-6d" transform="translate(274.609375 0)"/>
      <use xlink:href="#DejaVuSans-69" transform="translate(372.021484 0)"/>
      <use xlink:href="#DejaVuSans-6e" transform="translate(399.804688 0)"/>
      <use xlink:href="#DejaVuSans-20" transform="translate(463.183594 0)"/>
      <use xlink:href="#DejaVuSans-28" transform="translate(494.970703 0)"/>
      <use xlink:href="#DejaVuSans-66" transform="translate(533.984375 0)"/>
      <use xlink:href="#DejaVuSans-61" transform="translate(569.189453 0)"/>
      <use xlink:href="#DejaVuSans-73" transform="translate(630.46875 0)"/>
      <use xlink:href="#DejaVuSans-74" transform="translate(682.568359 0)"/>
      <use xlink:href="#DejaVuSans-65" transform="translate(721.777344 0)"/>
      <use xlink:href="#DejaVuSans-72" transform="translate(783.300781 0)"/>
      <use xlink:href="#DejaVuSans-29" transform="translate(824.414062 0)"/>
     </g>
    </g>
    <g id="patch_12">
     <path d="M 7.2 300.06 
L 324.072 300.06 
L 324.072 276.527532 
L 7.2 276.527532 
z
" style="fill: #e8f5e9; stroke: #000000; stroke-linejoin: miter"/>
    </g>
    <g id="text_11">
     <!-- 50 km closer -->
     <g transform="translate(130.171312 291.329079) scale(0.11 -0.11)">
      <use xlink:href="#DejaVuSans-35"/>
      <use xlink:href="#DejaVuSans-30" transform="translate(63.623047 0)"/>
      <use xlink:href="#DejaVuSans-20" transform="translate(127.246094 0)"/>
      <use xlink:href="#DejaVuSans-6b" transform="translate(159.033203 0)"/>
      <use xlink:href="#DejaVuSans-6d" transform="translate(216.943359 0)"/>
      <use xlink:href="#DejaVuSans-20" transform="translate(314.355469 0)"/>
      <use xlink:href="#DejaVuSans-63" transform="translate(346.142578 0)"/>
      <use xlink:href="#DejaVuSans-6c" transform="translate(401.123047 0)"/>
      <use xlink:href="#DejaVuSans-6f" transform="translate(428.90625 0)"/>
      <use xlink:href="#DejaVuSans-73" transform="translate(490.087891 0)"/>
      <use xlink:href="#DejaVuSans-65" transform="translate(542.1875 0)"/>
      <use xlink:href="#DejaVuSans-72" transform="translate(603.710938 0)"/>
     </g>
    </g>
    <g id="patch_13">
     <path d="M 324.072 300.06 
L 711.36 300.06 
L 711.36 276.527532 
L 324.072 276.527532 
z
" style="fill: #e8f5e9; stroke: #000000; stroke-linejoin: miter"/>
    </g>
    <g id="text_12">
     <!-- −12.5 min (faster) -->
     <g transform="translate(466.729281 291.329079) scale(0.11 -0.11)">
      <use xlink:href="#DejaVuSans-2212"/>
      <use xlink:href="#DejaVuSans-31" transform="translate(83.789062 0)"/>
      <use xlink:href="#DejaVuSans-32" transform="translate(147.412109 0)"/>
      <use xlink:href="#DejaVuSans-2e" transform="translate(211.035156 0)"/>
      <use xlink:href="#DejaVuSans-35" transform="translate(242.822266 0)"/>
      <use xlink:href="#DejaVuSans-20" transform="translate(306.445312 0)"/>
      <use xlink:href="#DejaVuSans-6d" transform="translate(338.232422 0)"/>
      <use xlink:href="#DejaVuSans-69" transform="translate(435.644531 0)"/>
      <use xlink:href="#DejaVuSans-6e" transform="translate(463.427734 0)"/>
      <use xlink:href="#DejaVuSans-20" transform="translate(526.806641 0)"/>
      <use xlink:href="#DejaVuSans-28" transform="translate(558.59375 0)"/>
      <use xlink:href="#DejaVuSans-66" transform="translate(597.607422 0)"/>
      <use xlink:href="#DejaVuSans-61" transform="translate(632.8125 0)"/>
      <use xlink:href="#DejaVuSans-73" transform="translate(694.091797 0)"/>
      <use xlink:href="#DejaVuSans-74" transform="translate(746.191406 0)"/>
      <use xlink:href="#DejaVuSans-65" transform="translate(785.400391 0)"/>
      <use xlink:href="#DejaVuSans-72" transform="translate(846.923828 0)"/>
      <use xlink:href="#DejaVuSans-29" transform="translate(888.037109 0)"/>
     </g>
    </g>
    <g id="patch_14">
     <path d="M 7.2 323.592468 
L 324.072 323.592468 
L 324.072 300.06 
L 7.2 300.06 
z
" style="fill: #ffffff; stroke: #000000; stroke-linejoin: miter"/>
    </g>
    <g id="text_13">
     <!-- — -->
     <g transform="translate(160.136 314.861546) scale(0.11 -0.11)">
      <defs>
       <path id="DejaVuSans-2014" d="M 313 1978 
L 6088 1978 
L 6088 1528 
L 313 1528 
L 313 1978 
z
" transform="scale(0.015625)"/>
      </defs>
      <use xlink:href="#DejaVuSans-2014"/>
     </g>
    </g>
    <g id="patch_15">
     <path d="M 324.072 323.592468 
L 711.36 323.592468 
L 711.36 300.06 
L 324.072 300.06 
z
" style="fill: #ffffff; stroke: #000000; stroke-linejoin: miter"/>
    </g>
    <g id="text_14">
     <!-- — -->
     <g transform="translate(512.216 314.861546) scale(0.11 -0.11)">
      <use xlink:href="#DejaVuSans-2014"/>
     </g>
    </g>
    <g id="patch_16">
     <path d="M 7.2 347.124935 
L 324.072 347.124935 
L 324.072 323.592468 
L 7.2 323.592468 
z
" style="fill: #ffebee; stroke: #000000; stroke-linejoin: miter"/>
    </g>
    <g id="text_15">
     <!-- 1 km farther -->
     <g transform="translate(131.243812 338.394014) scale(0.11 -0.11)">
      <defs>
       <path id="DejaVuSans-68" d="M 3513 2113 
L 3513 0 
L 2938 0 
L 2938 2094 
Q 2938 2591 2744 2837 
Q 2550 3084 2163 3084 
Q 1697 3084 1428 2787 
Q 1159 2491 1159 1978 
L 1159 0 
L 581 0 
L 581 4863 
L 1159 4863 
L 1159 2956 
Q 1366 3272 1645 3428 
Q 1925 3584 2291 3584 
Q 2894 3584 3203 3211 
Q 3513 2838 3513 2113 
z
" transform="scale(0.015625)"/>
      </defs>
      <use xlink:href="#DejaVuSans-31"/>
      <use xlink:href="#DejaVuSans-20" transform="translate(63.623047 0)"/>
      <use xlink:href="#DejaVuSans-6b" transform="translate(95.410156 0)"/>
      <use xlink:href="#DejaVuSans-6d" transform="translate(153.320312 0)"/>
      <use xlink:href="#DejaVuSans-20" transform="translate(250.732422 0)"/>
      <use xlink:href="#DejaVuSans-66" transform="translate(282.519531 0)"/>
      <use xlink:href="#DejaVuSans-61" transform="translate(317.724609 0)"/>
      <use xlink:href="#DejaVuSans-72" transform="translate(379.003906 0)"/>
      <use xlink:href="#DejaVuSans-74" transform="translate(420.117188 0)"/>
      <use xlink:href="#DejaVuSans-68" transform="translate(459.326172 0)"/>
      <use xlink:href="#DejaVuSans-65" transform="translate(522.705078 0)"/>
      <use xlink:href="#DejaVuSans-72" transform="translate(584.228516 0)"/>
     </g>
    </g>
    <g id="patch_17">
     <path d="M 324.072 347.124935 
L 711.36 347.124935 
L 711.36 323.592468 
L 324.072 323.592468 
z
" style="fill: #ffebee; stroke: #000000; stroke-linejoin: miter"/>
    </g>
    <g id="text_16">
     <!-- +0.2 min (slower) -->
     <g transform="translate(468.300219 338.394014) scale(0.11 -0.11)">
      <defs>
       <path id="DejaVuSans-2b" d="M 2944 4013 
L 2944 2272 
L 4684 2272 
L 4684 1741 
L 2944 1741 
L 2944 0 
L 2419 0 
L 2419 1741 
L 678 1741 
L 678 2272 
L 2419 2272 
L 2419 4013 
L 2944 4013 
z
" transform="scale(0.015625)"/>
       <path id="DejaVuSans-77" d="M 269 3500 
L 844 3500 
L 1563 769 
L 2278 3500 
L 2956 3500 
L 3675 769 
L 4391 3500 
L 4966 3500 
L 4050 0 
L 3372 0 
L 2619 2869 
L 1863 0 
L 1184 0 
L 269 3500 
z
" transform="scale(0.015625)"/>
      </defs>
      <use xlink:href="#DejaVuSans-2b"/>
      <use xlink:href="#DejaVuSans-30" transform="translate(83.789062 0)"/>
      <use xlink:href="#DejaVuSans-2e" transform="translate(147.412109 0)"/>
      <use xlink:href="#DejaVuSans-32" transform="translate(179.199219 0)"/>
      <use xlink:href="#DejaVuSans-20" transform="translate(242.822266 0)"/>
      <use xlink:href="#DejaVuSans-6d" transform="translate(274.609375 0)"/>
      <use xlink:href="#DejaVuSans-69" transform="translate(372.021484 0)"/>
      <use xlink:href="#DejaVuSans-6e" transform="translate(399.804688 0)"/>
      <use xlink:href="#DejaVuSans-20" transform="translate(463.183594 0)"/>
      <use xlink:href="#DejaVuSans-28" transform="translate(494.970703 0)"/>
      <use xlink:href="#DejaVuSans-73" transform="translate(533.984375 0)"/>
      <use xlink:href="#DejaVuSans-6c" transform="translate(586.083984 0)"/>
      <use xlink:href="#DejaVuSans-6f" transform="translate(613.867188 0)"/>
      <use xlink:href="#DejaVuSans-77" transform="translate(675.048828 0)"/>
      <use xlink:href="#DejaVuSans-65" transform="translate(756.835938 0)"/>
      <use xlink:href="#DejaVuSans-72" transform="translate(818.359375 0)"/>
      <use xlink:href="#DejaVuSans-29" transform="translate(859.472656 0)"/>
     </g>
    </g>
    <g id="patch_18">
     <path d="M 7.2 370.657403 
L 324.072 370.657403 
L 324.072 347.124935 
L 7.2 347.124935 
z
" style="fill: #ffebee; stroke: #000000; stroke-linejoin: miter"/>
    </g>
    <g id="text_17">
     <!-- 5 km farther -->
     <g transform="translate(131.243812 361.926481) scale(0.11 -0.11)">
      <use xlink:href="#DejaVuSans-35"/>
      <use xlink:href="#DejaVuSans-20" transform="translate(63.623047 0)"/>
      <use xlink:href="#DejaVuSans-6b" transform="translate(95.410156 0)"/>
      <use xlink:href="#DejaVuSans-6d" transform="translate(153.320312 0)"/>
      <use xlink:href="#DejaVuSans-20" transform="translate(250.732422 0)"/>
      <use xlink:href="#DejaVuSans-66" transform="translate(282.519531 0)"/>
      <use xlink:href="#DejaVuSans-61" transform="translate(317.724609 0)"/>
      <use xlink:href="#DejaVuSans-72" transform="translate(379.003906 0)"/>
      <use xlink:href="#DejaVuSans-74" transform="translate(420.117188 0)"/>
      <use xlink:href="#DejaVuSans-68" transform="translate(459.326172 0)"/>
      <use xlink:href="#DejaVuSans-65" transform="translate(522.705078 0)"/>
      <use xlink:href="#DejaVuSans-72" transform="translate(584.228516 0)"/>
     </g>
    </g>
    <g id="patch_19">
     <path d="M 324.072 370.657403 
L 711.36 370.657403 
L 711.36 347.124935 
L 324.072 347.124935 
z
" style="fill: #ffebee; stroke: #000000; stroke-linejoin: miter"/>
    </g>
    <g id="text_18">
     <!-- +1.2 min (slower) -->
     <g transform="translate(468.300219 361.926481) scale(0.11 -0.11)">
      <use xlink:href="#DejaVuSans-2b"/>
      <use xlink:href="#DejaVuSans-31" transform="translate(83.789062 0)"/>
      <use xlink:href="#DejaVuSans-2e" transform="translate(147.412109 0)"/>
      <use xlink:href="#DejaVuSans-32" transform="translate(179.199219 0)"/>
      <use xlink:href="#DejaVuSans-20" transform="translate(242.822266 0)"/>
      <use xlink:href="#DejaVuSans-6d" transform="translate(274.609375 0)"/>
      <use xlink:href="#DejaVuSans-69" transform="translate(372.021484 0)"/>
      <use xlink:href="#DejaVuSans-6e" transform="translate(399.804688 0)"/>
      <use xlink:href="#DejaVuSans-20" transform="translate(463.183594 0)"/>
      <use xlink:href="#DejaVuSans-28" transform="translate(494.970703 0)"/>
      <use xlink:href="#DejaVuSans-73" transform="translate(533.984375 0)"/>
      <use xlink:href="#DejaVuSans-6c" transform="translate(586.083984 0)"/>
      <use xlink:href="#DejaVuSans-6f" transform="translate(613.867188 0)"/>
      <use xlink:href="#DejaVuSans-77" transform="translate(675.048828 0)"/>
      <use xlink:href="#DejaVuSans-65" transform="translate(756.835938 0)"/>
      <use xlink:href="#DejaVuSans-72" transform="translate(818.359375 0)"/>
      <use xlink:href="#DejaVuSans-29" transform="translate(859.472656 0)"/>
     </g>
    </g>
    <g id="patch_20">
     <path d="M 7.2 394.18987 
L 324.072 394.18987 
L 324.072 370.657403 
L 7.2 370.657403 
z
" style="fill: #ffebee; stroke: #000000; stroke-linejoin: miter"/>
    </g>
    <g id="text_19">
     <!-- 10 km farther -->
     <g transform="translate(127.744437 385.458949) scale(0.11 -0.11)">
      <use xlink:href="#DejaVuSans-31"/>
      <use xlink:href="#DejaVuSans-30" transform="translate(63.623047 0)"/>
      <use xlink:href="#DejaVuSans-20" transform="translate(127.246094 0)"/>
      <use xlink:href="#DejaVuSans-6b" transform="translate(159.033203 0)"/>
      <use xlink:href="#DejaVuSans-6d" transform="translate(216.943359 0)"/>
      <use xlink:href="#DejaVuSans-20" transform="translate(314.355469 0)"/>
      <use xlink:href="#DejaVuSans-66" transform="translate(346.142578 0)"/>
      <use xlink:href="#DejaVuSans-61" transform="translate(381.347656 0)"/>
      <use xlink:href="#DejaVuSans-72" transform="translate(442.626953 0)"/>
      <use xlink:href="#DejaVuSans-74" transform="translate(483.740234 0)"/>
      <use xlink:href="#DejaVuSans-68" transform="translate(522.949219 0)"/>
      <use xlink:href="#DejaVuSans-65" transform="translate(586.328125 0)"/>
      <use xlink:href="#DejaVuSans-72" transform="translate(647.851562 0)"/>
     </g>
    </g>
    <g id="patch_21">
     <path d="M 324.072 394.18987 
L 711.36 394.18987 
L 711.36 370.657403 
L 324.072 370.657403 
z
" style="fill: #ffebee; stroke: #000000; stroke-linejoin: miter"/>
    </g>
    <g id="text_20">
     <!-- +2.5 min (slower) -->
     <g transform="translate(468.300219 385.458949) scale(0.11 -0.11)">
      <use xlink:href="#DejaVuSans-2b"/>
      <use xlink:href="#DejaVuSans-32" transform="translate(83.789062 0)"/>
      <use xlink:href="#DejaVuSans-2e" transform="translate(147.412109 0)"/>
      <use xlink:href="#DejaVuSans-35" transform="translate(179.199219 0)"/>
      <use xlink:href="#DejaVuSans-20" transform="translate(242.822266 0)"/>
      <use xlink:href="#DejaVuSans-6d" transform="translate(274.609375 0)"/>
      <use xlink:href="#DejaVuSans-69" transform="translate(372.021484 0)"/>
      <use xlink:href="#DejaVuSans-6e" transform="translate(399.804688 0)"/>
      <use xlink:href="#DejaVuSans-20" transform="translate(463.183594 0)"/>
      <use xlink:href="#DejaVuSans-28" transform="translate(494.970703 0)"/>
      <use xlink:href="#DejaVuSans-73" transform="translate(533.984375 0)"/>
      <use xlink:href="#DejaVuSans-6c" transform="translate(586.083984 0)"/>
      <use xlink:href="#DejaVuSans-6f" transform="translate(613.867188 0)"/>
      <use xlink:href="#DejaVuSans-77" transform="translate(675.048828 0)"/>
      <use xlink:href="#DejaVuSans-65" transform="translate(756.835938 0)"/>
      <use xlink:href="#DejaVuSans-72" transform="translate(818.359375 0)"/>
      <use xlink:href="#DejaVuSans-29" transform="translate(859.472656 0)"/>
     </g>
    </g>
    <g id="patch_22">
     <path d="M 7.2 417.722338 
L 324.072 417.722338 
L 324.072 394.18987 
L 7.2 394.18987 
z
" style="fill: #ffebee; stroke: #000000; stroke-linejoin: miter"/>
    </g>
    <g id="text_21">
     <!-- 25 km farther -->
     <g transform="translate(127.744437 408.991416) scale(0.11 -0.11)">
      <use xlink:href="#DejaVuSans-32"/>
      <use xlink:href="#DejaVuSans-35" transform="translate(63.623047 0)"/>
      <use xlink:href="#DejaVuSans-20" transform="translate(127.246094 0)"/>
      <use xlink:href="#DejaVuSans-6b" transform="translate(159.033203 0)"/>
      <use xlink:href="#DejaVuSans-6d" transform="translate(216.943359 0)"/>
      <use xlink:href="#DejaVuSans-20" transform="translate(314.355469 0)"/>
      <use xlink:href="#DejaVuSans-66" transform="translate(346.142578 0)"/>
      <use xlink:href="#DejaVuSans-61" transform="translate(381.347656 0)"/>
      <use xlink:href="#DejaVuSans-72" transform="translate(442.626953 0)"/>
      <use xlink:href="#DejaVuSans-74" transform="translate(483.740234 0)"/>
      <use xlink:href="#DejaVuSans-68" transform="translate(522.949219 0)"/>
      <use xlink:href="#DejaVuSans-65" transform="translate(586.328125 0)"/>
      <use xlink:href="#DejaVuSans-72" transform="translate(647.851562 0)"/>
     </g>
    </g>
    <g id="patch_23">
     <path d="M 324.072 417.722338 
L 711.36 417.722338 
L 711.36 394.18987 
L 324.072 394.18987 
z
" style="fill: #ffebee; stroke: #000000; stroke-linejoin: miter"/>
    </g>
    <g id="text_22">
     <!-- +6.2 min (slower) -->
     <g transform="translate(468.300219 408.991416) scale(0.11 -0.11)">
      <use xlink:href="#DejaVuSans-2b"/>
      <use xlink:href="#DejaVuSans-36" transform="translate(83.789062 0)"/>
      <use xlink:href="#DejaVuSans-2e" transform="translate(147.412109 0)"/>
      <use xlink:href="#DejaVuSans-32" transform="translate(179.199219 0)"/>
      <use xlink:href="#DejaVuSans-20" transform="translate(242.822266 0)"/>
      <use xlink:href="#DejaVuSans-6d" transform="translate(274.609375 0)"/>
      <use xlink:href="#DejaVuSans-69" transform="translate(372.021484 0)"/>
      <use xlink:href="#DejaVuSans-6e" transform="translate(399.804688 0)"/>
      <use xlink:href="#DejaVuSans-20" transform="translate(463.183594 0)"/>
      <use xlink:href="#DejaVuSans-28" transform="translate(494.970703 0)"/>
      <use xlink:href="#DejaVuSans-73" transform="translate(533.984375 0)"/>
      <use xlink:href="#DejaVuSans-6c" transform="translate(586.083984 0)"/>
      <use xlink:href="#DejaVuSans-6f" transform="translate(613.867188 0)"/>
      <use xlink:href="#DejaVuSans-77" transform="translate(675.048828 0)"/>
      <use xlink:href="#DejaVuSans-65" transform="translate(756.835938 0)"/>
      <use xlink:href="#DejaVuSans-72" transform="translate(818.359375 0)"/>
      <use xlink:href="#DejaVuSans-29" transform="translate(859.472656 0)"/>
     </g>
    </g>
    <g id="patch_24">
     <path d="M 7.2 441.254805 
L 324.072 441.254805 
L 324.072 417.722338 
L 7.2 417.722338 
z
" style="fill: #ffebee; stroke: #000000; stroke-linejoin: miter"/>
    </g>
    <g id="text_23">
     <!-- 50 km farther -->
     <g transform="translate(127.744437 432.523884) scale(0.11 -0.11)">
      <use xlink:href="#DejaVuSans-35"/>
      <use xlink:href="#DejaVuSans-30" transform="translate(63.623047 0)"/>
      <use xlink:href="#DejaVuSans-20" transform="translate(127.246094 0)"/>
      <use xlink:href="#DejaVuSans-6b" transform="translate(159.033203 0)"/>
      <use xlink:href="#DejaVuSans-6d" transform="translate(216.943359 0)"/>
      <use xlink:href="#DejaVuSans-20" transform="translate(314.355469 0)"/>
      <use xlink:href="#DejaVuSans-66" transform="translate(346.142578 0)"/>
      <use xlink:href="#DejaVuSans-61" transform="translate(381.347656 0)"/>
      <use xlink:href="#DejaVuSans-72" transform="translate(442.626953 0)"/>
      <use xlink:href="#DejaVuSans-74" transform="translate(483.740234 0)"/>
      <use xlink:href="#DejaVuSans-68" transform="translate(522.949219 0)"/>
      <use xlink:href="#DejaVuSans-65" transform="translate(586.328125 0)"/>
      <use xlink:href="#DejaVuSans-72" transform="translate(647.851562 0)"/>
     </g>
    </g>
    <g id="patch_25">
     <path d="M 324.072 441.254805 
L 711.36 441.254805 
L 711.36 417.722338 
L 324.072 417.722338 
z
" style="fill: #ffebee; stroke: #000000; stroke-linejoin: miter"/>
    </g>
    <g id="text_24">
     <!-- +12.5 min (slower) -->
     <g transform="translate(464.800844 432.523884) scale(0.11 -0.11)">
      <use xlink:href="#DejaVuSans-2b"/>
      <use xlink:href="#DejaVuSans-31" transform="translate(83.789062 0)"/>
      <use xlink:href="#DejaVuSans-32" transform="translate(147.412109 0)"/>
      <use xlink:href="#DejaVuSans-2e" transform="translate(211.035156 0)"/>
      <use xlink:href="#DejaVuSans-35" transform="translate(242.822266 0)"/>
      <use xlink:href="#DejaVuSans-20" transform="translate(306.445312 0)"/>
      <use xlink:href="#DejaVuSans-6d" transform="translate(338.232422 0)"/>
      <use xlink:href="#DejaVuSans-69" transform="translate(435.644531 0)"/>
      <use xlink:href="#DejaVuSans-6e" transform="translate(463.427734 0)"/>
      <use xlink:href="#DejaVuSans-20" transform="translate(526.806641 0)"/>
      <use xlink:href="#DejaVuSans-28" transform="translate(558.59375 0)"/>
      <use xlink:href="#DejaVuSans-73" transform="translate(597.607422 0)"/>
      <use xlink:href="#DejaVuSans-6c" transform="translate(649.707031 0)"/>
      <use xlink:href="#DejaVuSans-6f" transform="translate(677.490234 0)"/>
      <use xlink:href="#DejaVuSans-77" transform="translate(738.671875 0)"/>
      <use xlink:href="#DejaVuSans-65" transform="translate(820.458984 0)"/>
      <use xlink:href="#DejaVuSans-72" transform="translate(881.982422 0)"/>
      <use xlink:href="#DejaVuSans-29" transform="translate(923.095703 0)"/>
     </g>
    </g>
   </g>
  </g>
  <g id="text_25">
   <!-- Response Time Change vs Distance Change (Reference) -->
   <g transform="translate(107.2825 19.3575) scale(0.16 -0.16)">
    <defs>
     <path id="DejaVuSans-Bold-52" d="M 2297 2597 
Q 2675 2597 2839 2737 
Q 3003 2878 3003 3200 
Q 3003 3519 2839 3656 
Q 2675 3794 2297 3794 
L 1791 3794 
L 1791 2597 
L 2297 2597 
z
M 1791 1766 
L 1791 0 
L 588 0 
L 588 4666 
L 2425 4666 
Q 3347 4666 3776 4356 
Q 4206 4047 4206 3378 
Q 4206 2916 3982 2619 
Q 3759 2322 3309 2181 
Q 3556 2125 3751 1926 
Q 3947 1728 4147 1325 
L 4800 0 
L 3519 0 
L 2950 1159 
Q 2778 1509 2601 1637 
Q 2425 1766 2131 1766 
L 1791 1766 
z
" transform="scale(0.015625)"/>
     <path id="DejaVuSans-Bold-70" d="M 1656 506 
L 1656 -1331 
L 538 -1331 
L 538 3500 
L 1656 3500 
L 1656 2988 
Q 1888 3294 2169 3439 
Q 2450 3584 2816 3584 
Q 3463 3584 3878 3070 
Q 4294 2556 4294 1747 
Q 4294 938 3878 423 
Q 3463 -91 2816 -91 
Q 2450 -91 2169 54 
Q 1888 200 1656 506 
z
M 2400 2772 
Q 2041 2772 1848 2508 
Q 1656 2244 1656 1747 
Q 1656 1250 1848 986 
Q 2041 722 2400 722 
Q 2759 722 2948 984 
Q 3138 1247 3138 1747 
Q 3138 2247 2948 2509 
Q 2759 2772 2400 2772 
z
" transform="scale(0.015625)"/>
     <path id="DejaVuSans-Bold-6f" d="M 2203 2784 
Q 1831 2784 1636 2517 
Q 1441 2250 1441 1747 
Q 1441 1244 1636 976 
Q 1831 709 2203 709 
Q 2569 709 2762 976 
Q 2956 1244 2956 1747 
Q 2956 2250 2762 2517 
Q 2569 2784 2203 2784 
z
M 2203 3584 
Q 3106 3584 3614 3096 
Q 4122 2609 4122 1747 
Q 4122 884 3614 396 
Q 3106 -91 2203 -91 
Q 1297 -91 786 396 
Q 275 884 275 1747 
Q 275 2609 786 3096 
Q 1297 3584 2203 3584 
z
" transform="scale(0.015625)"/>
     <path id="DejaVuSans-Bold-76" d="M 97 3500 
L 1216 3500 
L 2088 1081 
L 2956 3500 
L 4078 3500 
L 2700 0 
L 1472 0 
L 97 3500 
z
" transform="scale(0.015625)"/>
     <path id="DejaVuSans-Bold-66" d="M 2841 4863 
L 2841 4128 
L 2222 4128 
Q 1984 4128 1890 4042 
Q 1797 3956 1797 3744 
L 1797 3500 
L 2753 3500 
L 2753 2700 
L 1797 2700 
L 1797 0 
L 678 0 
L 678 2700 
L 122 2700 
L 122 3500 
L 678 3500 
L 678 3744 
Q 678 4316 997 4589 
Q 1316 4863 1984 4863 
L 2841 4863 
z
" transform="scale(0.015625)"/>
    </defs>
    <use xlink:href="#DejaVuSans-Bold-52"/>
    <use xlink:href="#DejaVuSans-Bold-65" transform="translate(77.001953 0)"/>
    <use xlink:href="#DejaVuSans-Bold-73" transform="translate(144.824219 0)"/>
    <use xlink:href="#DejaVuSans-Bold-70" transform="translate(204.345703 0)"/>
    <use xlink:href="#DejaVuSans-Bold-6f" transform="translate(275.927734 0)"/>
    <use xlink:href="#DejaVuSans-Bold-6e" transform="translate(344.628906 0)"/>
    <use xlink:href="#DejaVuSans-Bold-73" transform="translate(415.820312 0)"/>
    <use xlink:href="#DejaVuSans-Bold-65" transform="translate(475.341797 0)"/>
    <use xlink:href="#DejaVuSans-Bold-20" transform="translate(543.164062 0)"/>
    <use xlink:href="#DejaVuSans-Bold-54" transform="translate(577.978516 0)"/>
    <use xlink:href="#DejaVuSans-Bold-69" transform="translate(646.191406 0)"/>
    <use xlink:href="#DejaVuSans-Bold-6d" transform="translate(680.46875 0)"/>
    <use xlink:href="#DejaVuSans-Bold-65" transform="translate(784.667969 0)"/>
    <use xlink:href="#DejaVuSans-Bold-20" transform="translate(852.490234 0)"/>
    <use xlink:href="#DejaVuSans-Bold-43" transform="translate(887.304688 0)"/>
    <use xlink:href="#DejaVuSans-Bold-68" transform="translate(960.693359 0)"/>
    <use xlink:href="#DejaVuSans-Bold-61" transform="translate(1031.884766 0)"/>
    <use xlink:href="#DejaVuSans-Bold-6e" transform="translate(1099.365234 0)"/>
    <use xlink:href="#DejaVuSans-Bold-67" transform="translate(1170.556641 0)"/>
    <use xlink:href="#DejaVuSans-Bold-65" transform="translate(1242.138672 0)"/>
    <use xlink:href="#DejaVuSans-Bold-20" transform="translate(1309.960938 0)"/>
    <use xlink:href="#DejaVuSans-Bold-76" transform="translate(1344.775391 0)"/>
    <use xlink:href="#DejaVuSans-Bold-73" transform="translate(1409.960938 0)"/>
    <use xlink:href="#DejaVuSans-Bold-20" transform="translate(1469.482422 0)"/>
    <use xlink:href="#DejaVuSans-Bold-44" transform="translate(1504.296875 0)"/>
    <use xlink:href="#DejaVuSans-Bold-69" transform="translate(1587.304688 0)"/>
    <use xlink:href="#DejaVuSans-Bold-73" transform="translate(1621.582031 0)"/>
    <use xlink:href="#DejaVuSans-Bold-74" transform="translate(1681.103516 0)"/>
    <use xlink:href="#DejaVuSans-Bold-61" transform="translate(1728.90625 0)"/>
    <use xlink:href="#DejaVuSans-Bold-6e" transform="translate(1796.386719 0)"/>
    <use xlink:href="#DejaVuSans-Bold-63" transform="translate(1867.578125 0)"/>
    <use xlink:href="#DejaVuSans-Bold-65" transform="translate(1926.855469 0)"/>
    <use xlink:href="#DejaVuSans-Bold-20" transform="translate(1994.677734 0)"/>
    <use xlink:href="#DejaVuSans-Bold-43" transform="translate(2029.492188 0)"/>
    <use xlink:href="#DejaVuSans-Bold-68" transform="translate(2102.880859 0)"/>
    <use xlink:href="#DejaVuSans-Bold-61" transform="translate(2174.072266 0)"/>
    <use xlink:href="#DejaVuSans-Bold-6e" transform="translate(2241.552734 0)"/>
    <use xlink:href="#DejaVuSans-Bold-67" transform="translate(2312.744141 0)"/>
    <use xlink:href="#DejaVuSans-Bold-65" transform="translate(2384.326172 0)"/>
    <use xlink:href="#DejaVuSans-Bold-20" transform="translate(2452.148438 0)"/>
    <use xlink:href="#DejaVuSans-Bold-28" transform="translate(2486.962891 0)"/>
    <use xlink:href="#DejaVuSans-Bold-52" transform="translate(2532.666016 0)"/>
    <use xlink:href="#DejaVuSans-Bold-65" transform="translate(2609.667969 0)"/>
    <use xlink:href="#DejaVuSans-Bold-66" transform="translate(2677.490234 0)"/>
    <use xlink:href="#DejaVuSans-Bold-65" transform="translate(2720.996094 0)"/>
    <use xlink:href="#DejaVuSans-Bold-72" transform="translate(2788.818359 0)"/>
    <use xlink:href="#DejaVuSans-Bold-65" transform="translate(2838.134766 0)"/>
    <use xlink:href="#DejaVuSans-Bold-6e" transform="translate(2905.957031 0)"/>
    <use xlink:href="#DejaVuSans-Bold-63" transform="translate(2977.148438 0)"/>
    <use xlink:href="#DejaVuSans-Bold-65" transform="translate(3036.425781 0)"/>
    <use xlink:href="#DejaVuSans-Bold-29" transform="translate(3104.248047 0)"/>
   </g>
  </g>
  <g id="text_26">
   <!-- Δ time (min) = (distance change km / speed) × 60 -->
   <g style="fill: #5d6d7e" transform="translate(219.8825 37.44) scale(0.11 -0.11)">
    <defs>
     <path id="DejaVuSans-Oblique-394" d="M 2519 4044 
L 556 525 
L 3122 525 
L 2519 4044 
z
M -403 0 
L 2284 4666 
L 3000 4666 
L 3872 0 
L -403 0 
z
" transform="scale(0.015625)"/>
     <path id="DejaVuSans-Oblique-20" transform="scale(0.015625)"/>
     <path id="DejaVuSans-Oblique-74" d="M 2706 3500 
L 2619 3053 
L 1472 3053 
L 1100 1153 
Q 1081 1047 1072 975 
Q 1063 903 1063 863 
Q 1063 663 1183 572 
Q 1303 481 1569 481 
L 2150 481 
L 2053 0 
L 1503 0 
Q 991 0 739 200 
Q 488 400 488 806 
Q 488 878 497 964 
Q 506 1050 525 1153 
L 897 3053 
L 409 3053 
L 500 3500 
L 978 3500 
L 1172 4494 
L 1747 4494 
L 1556 3500 
L 2706 3500 
z
" transform="scale(0.015625)"/>
     <path id="DejaVuSans-Oblique-69" d="M 1172 4863 
L 1747 4863 
L 1606 4134 
L 1031 4134 
L 1172 4863 
z
M 909 3500 
L 1484 3500 
L 800 0 
L 225 0 
L 909 3500 
z
" transform="scale(0.015625)"/>
     <path id="DejaVuSans-Oblique-6d" d="M 5747 2113 
L 5338 0 
L 4763 0 
L 5166 2094 
Q 5191 2228 5203 2325 
Q 5216 2422 5216 2491 
Q 5216 2772 5059 2928 
Q 4903 3084 4622 3084 
Q 4203 3084 3875 2770 
Q 3547 2456 3450 1953 
L 3066 0 
L 2491 0 
L 2900 2094 
Q 2925 2209 2937 2307 
Q 2950 2406 2950 2484 
Q 2950 2769 2794 2926 
Q 2638 3084 2363 3084 
Q 1938 3084 1609 2770 
Q 1281 2456 1184 1953 
L 800 0 
L 225 0 
L 909 3500 
L 1484 3500 
L 1375 2956 
Q 1609 3263 1923 3423 
Q 2238 3584 2597 3584 
Q 2978 3584 3223 3384 
Q 3469 3184 3519 2828 
Q 3781 3197 4126 3390 
Q 4472 3584 4856 3584 
Q 5306 3584 5551 3325 
Q 5797 3066 5797 2591 
Q 5797 2488 5784 2364 
Q 5772 2241 5747 2113 
z
" transform="scale(0.015625)"/>
     <path id="DejaVuSans-Oblique-65" d="M 3078 2063 
Q 3088 2113 3092 2166 
Q 3097 2219 3097 2272 
Q 3097 2653 2873 2875 
Q 2650 3097 2266 3097 
Q 1838 3097 1509 2826 
Q 1181 2556 1013 2059 
L 3078 2063 
z
M 3578 1613 
L 903 1613 
Q 884 1494 878 1425 
Q 872 1356 872 1306 
Q 872 872 1139 634 
Q 1406 397 1894 397 
Q 2269 397 2603 481 
Q 2938 566 3225 728 
L 3116 159 
Q 2806 34 2476 -28 
Q 2147 -91 1806 -91 
Q 1078 -91 686 257 
Q 294 606 294 1247 
Q 294 1794 489 2264 
Q 684 2734 1063 3103 
Q 1306 3334 1642 3459 
Q 1978 3584 2356 3584 
Q 2950 3584 3301 3228 
Q 3653 2872 3653 2272 
Q 3653 2128 3634 1964 
Q 3616 1800 3578 1613 
z
" transform="scale(0.015625)"/>
     <path id="DejaVuSans-Oblique-28" d="M 2731 4856 
Q 1903 3822 1495 2892 
Q 1088 1963 1088 1100 
Q 1088 606 1206 120 
Q 1325 -366 1563 -844 
L 1063 -844 
Q 775 -306 634 201 
Q 494 709 494 1197 
Q 494 2125 923 3036 
Q 1353 3947 2222 4856 
L 2731 4856 
z
" transform="scale(0.015625)"/>
     <path id="DejaVuSans-Oblique-6e" d="M 3566 2113 
L 3156 0 
L 2578 0 
L 2988 2091 
Q 3016 2238 3031 2350 
Q 3047 2463 3047 2528 
Q 3047 2791 2881 2937 
Q 2716 3084 2419 3084 
Q 1956 3084 1622 2776 
Q 1288 2469 1184 1941 
L 800 0 
L 225 0 
L 903 3500 
L 1478 3500 
L 1363 2950 
Q 1603 3253 1940 3418 
Q 2278 3584 2650 3584 
Q 3113 3584 3367 3334 
Q 3622 3084 3622 2631 
Q 3622 2519 3608 2391 
Q 3594 2263 3566 2113 
z
" transform="scale(0.015625)"/>
     <path id="DejaVuSans-Oblique-29" d="M -397 -844 
Q 434 191 840 1120 
Q 1247 2050 1247 2913 
Q 1247 3406 1130 3892 
Q 1013 4378 775 4856 
L 1275 4856 
Q 1563 4316 1703 3812 
Q 1844 3309 1844 2822 
Q 1844 1891 1411 973 
Q 978 56 116 -844 
L -397 -844 
z
" transform="scale(0.015625)"/>
     <path id="DejaVuSans-Oblique-3d" d="M 678 2906 
L 4684 2906 
L 4684 2381 
L 678 2381 
L 678 2906 
z
M 678 1631 
L 4684 1631 
L 4684 1100 
L 678 1100 
L 678 1631 
z
" transform="scale(0.015625)"/>
     <path id="DejaVuSans-Oblique-64" d="M 2675 525 
Q 2444 222 2128 65 
Q 1813 -91 1428 -91 
Q 903 -91 598 267 
Q 294 625 294 1247 
Q 294 1766 478 2236 
Q 663 2706 1013 3078 
Q 1244 3325 1534 3454 
Q 1825 3584 2144 3584 
Q 2481 3584 2739 3421 
Q 2997 3259 3138 2956 
L 3513 4863 
L 4091 4863 
L 3144 0 
L 2566 0 
L 2675 525 
z
M 891 1350 
Q 891 897 1095 644 
Q 1300 391 1663 391 
Q 1931 391 2161 520 
Q 2391 650 2566 903 
Q 2750 1166 2856 1509 
Q 2963 1853 2963 2188 
Q 2963 2622 2758 2865 
Q 2553 3109 2194 3109 
Q 1922 3109 1687 2981 
Q 1453 2853 1288 2613 
Q 1106 2353 998 2009 
Q 891 1666 891 1350 
z
" transform="scale(0.015625)"/>
     <path id="DejaVuSans-Oblique-73" d="M 3200 3397 
L 3091 2853 
Q 2863 2978 2609 3040 
Q 2356 3103 2088 3103 
Q 1634 3103 1373 2948 
Q 1113 2794 1113 2528 
Q 1113 2219 1719 2053 
Q 1766 2041 1788 2034 
L 1972 1978 
Q 2547 1819 2739 1644 
Q 2931 1469 2931 1166 
Q 2931 609 2489 259 
Q 2047 -91 1331 -91 
Q 1053 -91 747 -37 
Q 441 16 72 128 
L 184 722 
Q 500 559 806 475 
Q 1113 391 1394 391 
Q 1816 391 2080 572 
Q 2344 753 2344 1031 
Q 2344 1331 1650 1516 
L 1591 1531 
L 1394 1581 
Q 956 1697 753 1886 
Q 550 2075 550 2369 
Q 550 2928 970 3256 
Q 1391 3584 2113 3584 
Q 2397 3584 2667 3537 
Q 2938 3491 3200 3397 
z
" transform="scale(0.015625)"/>
     <path id="DejaVuSans-Oblique-61" d="M 3438 1997 
L 3047 0 
L 2472 0 
L 2578 531 
Q 2325 219 2001 64 
Q 1678 -91 1281 -91 
Q 834 -91 548 182 
Q 263 456 263 884 
Q 263 1497 752 1853 
Q 1241 2209 2100 2209 
L 2900 2209 
L 2931 2363 
Q 2938 2388 2941 2417 
Q 2944 2447 2944 2509 
Q 2944 2788 2717 2942 
Q 2491 3097 2081 3097 
Q 1800 3097 1504 3025 
Q 1209 2953 897 2809 
L 997 3341 
Q 1322 3463 1633 3523 
Q 1944 3584 2234 3584 
Q 2853 3584 3176 3315 
Q 3500 3047 3500 2534 
Q 3500 2431 3484 2292 
Q 3469 2153 3438 1997 
z
M 2816 1759 
L 2241 1759 
Q 1534 1759 1195 1570 
Q 856 1381 856 984 
Q 856 709 1029 553 
Q 1203 397 1509 397 
Q 1978 397 2328 733 
Q 2678 1069 2791 1631 
L 2816 1759 
z
" transform="scale(0.015625)"/>
     <path id="DejaVuSans-Oblique-63" d="M 3431 3366 
L 3316 2797 
Q 3109 2947 2876 3022 
Q 2644 3097 2394 3097 
Q 2119 3097 1870 3000 
Q 1622 2903 1453 2725 
Q 1184 2453 1037 2087 
Q 891 1722 891 1331 
Q 891 859 1127 628 
Q 1363 397 1844 397 
Q 2081 397 2348 469 
Q 2616 541 2906 684 
L 2797 116 
Q 2547 13 2283 -39 
Q 2019 -91 1741 -91 
Q 1044 -91 669 257 
Q 294 606 294 1253 
Q 294 1797 489 2255 
Q 684 2713 1069 3078 
Q 1331 3328 1684 3456 
Q 2038 3584 2456 3584 
Q 2700 3584 2940 3529 
Q 3181 3475 3431 3366 
z
" transform="scale(0.015625)"/>
     <path id="DejaVuSans-Oblique-68" d="M 3566 2113 
L 3156 0 
L 2578 0 
L 2988 2091 
Q 3016 2238 3031 2350 
Q 3047 2463 3047 2528 
Q 3047 2791 2881 2937 
Q 2716 3084 2419 3084 
Q 1956 3084 1617 2771 
Q 1278 2459 1178 1941 
L 800 0 
L 225 0 
L 1172 4863 
L 1747 4863 
L 1375 2950 
Q 1594 3244 1934 3414 
Q 2275 3584 2650 3584 
Q 3113 3584 3367 3334 
Q 3622 3084 3622 2631 
Q 3622 2519 3608 2391 
Q 3594 2263 3566 2113 
z
" transform="scale(0.015625)"/>
     <path id="DejaVuSans-Oblique-67" d="M 3816 3500 
L 3219 434 
Q 3047 -456 2561 -893 
Q 2075 -1331 1253 -1331 
Q 950 -1331 690 -1286 
Q 431 -1241 206 -1147 
L 313 -588 
Q 525 -725 762 -790 
Q 1000 -856 1269 -856 
Q 1816 -856 2167 -557 
Q 2519 -259 2631 300 
L 2681 563 
Q 2441 288 2122 144 
Q 1803 0 1434 0 
Q 903 0 598 351 
Q 294 703 294 1319 
Q 294 1803 478 2267 
Q 663 2731 997 3091 
Q 1219 3328 1514 3456 
Q 1809 3584 2131 3584 
Q 2484 3584 2746 3420 
Q 3009 3256 3138 2956 
L 3238 3500 
L 3816 3500 
z
M 2950 2216 
Q 2950 2641 2750 2872 
Q 2550 3103 2181 3103 
Q 1953 3103 1747 3012 
Q 1541 2922 1394 2759 
Q 1156 2491 1023 2127 
Q 891 1763 891 1375 
Q 891 944 1092 712 
Q 1294 481 1672 481 
Q 2219 481 2584 976 
Q 2950 1472 2950 2216 
z
" transform="scale(0.015625)"/>
     <path id="DejaVuSans-Oblique-6b" d="M 1172 4863 
L 1747 4863 
L 1197 2028 
L 3169 3500 
L 3916 3500 
L 1716 1825 
L 3322 0 
L 2625 0 
L 1131 1709 
L 800 0 
L 225 0 
L 1172 4863 
z
" transform="scale(0.015625)"/>
     <path id="DejaVuSans-Oblique-2f" d="M 2175 4666 
L 2731 4666 
L 84 -594 
L -469 -594 
L 2175 4666 
z
" transform="scale(0.015625)"/>
     <path id="DejaVuSans-Oblique-70" d="M 3175 2156 
Q 3175 2616 2975 2859 
Q 2775 3103 2400 3103 
Q 2144 3103 1911 2972 
Q 1678 2841 1497 2591 
Q 1319 2344 1212 1994 
Q 1106 1644 1106 1300 
Q 1106 863 1306 627 
Q 1506 391 1875 391 
Q 2147 391 2380 519 
Q 2613 647 2778 891 
Q 2956 1147 3065 1494 
Q 3175 1841 3175 2156 
z
M 1394 2969 
Q 1625 3272 1939 3428 
Q 2253 3584 2638 3584 
Q 3175 3584 3472 3232 
Q 3769 2881 3769 2247 
Q 3769 1728 3584 1258 
Q 3400 788 3053 416 
Q 2822 169 2531 39 
Q 2241 -91 1919 -91 
Q 1547 -91 1294 64 
Q 1041 219 916 525 
L 556 -1331 
L -19 -1331 
L 922 3500 
L 1497 3500 
L 1394 2969 
z
" transform="scale(0.015625)"/>
     <path id="DejaVuSans-Oblique-d7" d="M 4488 3438 
L 3059 2003 
L 4488 575 
L 4116 197 
L 2681 1631 
L 1247 197 
L 878 575 
L 2303 2003 
L 878 3438 
L 1247 3816 
L 2681 2381 
L 4116 3816 
L 4488 3438 
z
" transform="scale(0.015625)"/>
     <path id="DejaVuSans-Oblique-36" d="M 2938 1728 
Q 2938 2125 2734 2354 
Q 2531 2584 2181 2584 
Q 1697 2584 1367 2211 
Q 1038 1838 1038 1288 
Q 1038 875 1239 642 
Q 1441 409 1797 409 
Q 2284 409 2611 792 
Q 2938 1175 2938 1728 
z
M 3788 4556 
L 3681 3981 
Q 3500 4100 3265 4162 
Q 3031 4225 2766 4225 
Q 2119 4225 1726 3819 
Q 1334 3413 1141 2547 
Q 1369 2813 1670 2948 
Q 1972 3084 2322 3084 
Q 2894 3084 3233 2754 
Q 3572 2425 3572 1869 
Q 3572 1413 3405 1020 
Q 3238 628 2919 331 
Q 2700 128 2409 18 
Q 2119 -91 1791 -91 
Q 1147 -91 775 318 
Q 403 728 403 1441 
Q 403 2103 573 2717 
Q 744 3331 1050 3781 
Q 1372 4256 1830 4503 
Q 2288 4750 2841 4750 
Q 3084 4750 3321 4701 
Q 3559 4653 3788 4556 
z
" transform="scale(0.015625)"/>
     <path id="DejaVuSans-Oblique-30" d="M 2444 4750 
Q 3078 4750 3414 4328 
Q 3750 3906 3750 3116 
Q 3750 2516 3592 1923 
Q 3434 1331 3150 863 
Q 2859 394 2467 151 
Q 2075 -91 1600 -91 
Q 988 -91 653 334 
Q 319 759 319 1544 
Q 319 2138 480 2733 
Q 641 3328 928 3794 
Q 1216 4263 1602 4506 
Q 1988 4750 2444 4750 
z
M 2406 4250 
Q 2169 4250 1955 4123 
Q 1741 3997 1569 3750 
Q 1281 3338 1111 2720 
Q 941 2103 941 1453 
Q 941 938 1123 673 
Q 1306 409 1663 409 
Q 1913 409 2125 536 
Q 2338 663 2509 909 
Q 2794 1319 2961 1936 
Q 3128 2553 3128 3206 
Q 3128 3722 2945 3986 
Q 2763 4250 2406 4250 
z
" transform="scale(0.015625)"/>
    </defs>
    <use xlink:href="#DejaVuSans-Oblique-394"/>
    <use xlink:href="#DejaVuSans-Oblique-20" transform="translate(68.408203 0)"/>
    <use xlink:href="#DejaVuSans-Oblique-74" transform="translate(100.195312 0)"/>
    <use xlink:href="#DejaVuSans-Oblique-69" transform="translate(139.404297 0)"/>
    <use xlink:href="#DejaVuSans-Oblique-6d" transform="translate(167.1875 0)"/>
    <use xlink:href="#DejaVuSans-Oblique-65" transform="translate(264.599609 0)"/>
    <use xlink:href="#DejaVuSans-Oblique-20" transform="translate(326.123047 0)"/>
    <use xlink:href="#DejaVuSans-Oblique-28" transform="translate(357.910156 0)"/>
    <use xlink:href="#DejaVuSans-Oblique-6d" transform="translate(396.923828 0)"/>
    <use xlink:href="#DejaVuSans-Oblique-69" transform="translate(494.335938 0)"/>
    <use xlink:href="#DejaVuSans-Oblique-6e" transform="translate(522.119141 0)"/>
    <use xlink:href="#DejaVuSans-Oblique-29" transform="translate(585.498047 0)"/>
    <use xlink:href="#DejaVuSans-Oblique-20" transform="translate(624.511719 0)"/>
    <use xlink:href="#DejaVuSans-Oblique-3d" transform="translate(656.298828 0)"/>
    <use xlink:href="#DejaVuSans-Oblique-20" transform="translate(740.087891 0)"/>
    <use xlink:href="#DejaVuSans-Oblique-28" transform="translate(771.875 0)"/>
    <use xlink:href="#DejaVuSans-Oblique-64" transform="translate(810.888672 0)"/>
    <use xlink:href="#DejaVuSans-Oblique-69" transform="translate(874.365234 0)"/>
    <use xlink:href="#DejaVuSans-Oblique-73" transform="translate(902.148438 0)"/>
    <use xlink:href="#DejaVuSans-Oblique-74" transform="translate(954.248047 0)"/>
    <use xlink:href="#DejaVuSans-Oblique-61" transform="translate(993.457031 0)"/>
    <use xlink:href="#DejaVuSans-Oblique-6e" transform="translate(1054.736328 0)"/>
    <use xlink:href="#DejaVuSans-Oblique-63" transform="translate(1118.115234 0)"/>
    <use xlink:href="#DejaVuSans-Oblique-65" transform="translate(1173.095703 0)"/>
    <use xlink:href="#DejaVuSans-Oblique-20" transform="translate(1234.619141 0)"/>
    <use xlink:href="#DejaVuSans-Oblique-63" transform="translate(1266.40625 0)"/>
    <use xlink:href="#DejaVuSans-Oblique-68" transform="translate(1321.386719 0)"/>
    <use xlink:href="#DejaVuSans-Oblique-61" transform="translate(1384.765625 0)"/>
    <use xlink:href="#DejaVuSans-Oblique-6e" transform="translate(1446.044922 0)"/>
    <use xlink:href="#DejaVuSans-Oblique-67" transform="translate(1509.423828 0)"/>
    <use xlink:href="#DejaVuSans-Oblique-65" transform="translate(1572.900391 0)"/>
    <use xlink:href="#DejaVuSans-Oblique-20" transform="translate(1634.423828 0)"/>
    <use xlink:href="#DejaVuSans-Oblique-6b" transform="translate(1666.210938 0)"/>
    <use xlink:href="#DejaVuSans-Oblique-6d" transform="translate(1724.121094 0)"/>
    <use xlink:href="#DejaVuSans-Oblique-20" transform="translate(1821.533203 0)"/>
    <use xlink:href="#DejaVuSans-Oblique-2f" transform="translate(1853.320312 0)"/>
    <use xlink:href="#DejaVuSans-Oblique-20" transform="translate(1887.011719 0)"/>
    <use xlink:href="#DejaVuSans-Oblique-73" transform="translate(1918.798828 0)"/>
    <use xlink:href="#DejaVuSans-Oblique-70" transform="translate(1970.898438 0)"/>
    <use xlink:href="#DejaVuSans-Oblique-65" transform="translate(2034.375 0)"/>
    <use xlink:href="#DejaVuSans-Oblique-65" transform="translate(2095.898438 0)"/>
    <use xlink:href="#DejaVuSans-Oblique-64" transform="translate(2157.421875 0)"/>
    <use xlink:href="#DejaVuSans-Oblique-29" transform="translate(2220.898438 0)"/>
    <use xlink:href="#DejaVuSans-Oblique-20" transform="translate(2259.912109 0)"/>
    <use xlink:href="#DejaVuSans-Oblique-d7" transform="translate(2291.699219 0)"/>
    <use xlink:href="#DejaVuSans-Oblique-20" transform="translate(2375.488281 0)"/>
    <use xlink:href="#DejaVuSans-Oblique-36" transform="translate(2407.275391 0)"/>
    <use xlink:href="#DejaVuSans-Oblique-30" transform="translate(2470.898438 0)"/>
   </g>
  </g>
  <g id="text_27">
   <!-- Compared to original response when base is reassigned -->
   <g style="fill: #5d6d7e" transform="translate(219.194844 57.6) scale(0.1 -0.1)">
    <defs>
     <path id="DejaVuSans-43" d="M 4122 4306 
L 4122 3641 
Q 3803 3938 3442 4084 
Q 3081 4231 2675 4231 
Q 1875 4231 1450 3742 
Q 1025 3253 1025 2328 
Q 1025 1406 1450 917 
Q 1875 428 2675 428 
Q 3081 428 3442 575 
Q 3803 722 4122 1019 
L 4122 359 
Q 3791 134 3420 21 
Q 3050 -91 2638 -91 
Q 1578 -91 968 557 
Q 359 1206 359 2328 
Q 359 3453 968 4101 
Q 1578 4750 2638 4750 
Q 3056 4750 3426 4639 
Q 3797 4528 4122 4306 
z
" transform="scale(0.015625)"/>
     <path id="DejaVuSans-70" d="M 1159 525 
L 1159 -1331 
L 581 -1331 
L 581 3500 
L 1159 3500 
L 1159 2969 
Q 1341 3281 1617 3432 
Q 1894 3584 2278 3584 
Q 2916 3584 3314 3078 
Q 3713 2572 3713 1747 
Q 3713 922 3314 415 
Q 2916 -91 2278 -91 
Q 1894 -91 1617 61 
Q 1341 213 1159 525 
z
M 3116 1747 
Q 3116 2381 2855 2742 
Q 2594 3103 2138 3103 
Q 1681 3103 1420 2742 
Q 1159 2381 1159 1747 
Q 1159 1113 1420 752 
Q 1681 391 2138 391 
Q 2594 391 2855 752 
Q 3116 1113 3116 1747 
z
" transform="scale(0.015625)"/>
     <path id="DejaVuSans-64" d="M 2906 2969 
L 2906 4863 
L 3481 4863 
L 3481 0 
L 2906 0 
L 2906 525 
Q 2725 213 2448 61 
Q 2172 -91 1784 -91 
Q 1150 -91 751 415 
Q 353 922 353 1747 
Q 353 2572 751 3078 
Q 1150 3584 1784 3584 
Q 2172 3584 2448 3432 
Q 2725 3281 2906 2969 
z
M 947 1747 
Q 947 1113 1208 752 
Q 1469 391 1925 391 
Q 2381 391 2643 752 
Q 2906 1113 2906 1747 
Q 2906 2381 2643 2742 
Q 2381 3103 1925 3103 
Q 1469 3103 1208 2742 
Q 947 2381 947 1747 
z
" transform="scale(0.015625)"/>
     <path id="DejaVuSans-67" d="M 2906 1791 
Q 2906 2416 2648 2759 
Q 2391 3103 1925 3103 
Q 1463 3103 1205 2759 
Q 947 2416 947 1791 
Q 947 1169 1205 825 
Q 1463 481 1925 481 
Q 2391 481 2648 825 
Q 2906 1169 2906 1791 
z
M 3481 434 
Q 3481 -459 3084 -895 
Q 2688 -1331 1869 -1331 
Q 1566 -1331 1297 -1286 
Q 1028 -1241 775 -1147 
L 775 -588 
Q 1028 -725 1275 -790 
Q 1522 -856 1778 -856 
Q 2344 -856 2625 -561 
Q 2906 -266 2906 331 
L 2906 616 
Q 2728 306 2450 153 
Q 2172 0 1784 0 
Q 1141 0 747 490 
Q 353 981 353 1791 
Q 353 2603 747 3093 
Q 1141 3584 1784 3584 
Q 2172 3584 2450 3431 
Q 2728 3278 2906 2969 
L 2906 3500 
L 3481 3500 
L 3481 434 
z
" transform="scale(0.015625)"/>
     <path id="DejaVuSans-62" d="M 3116 1747 
Q 3116 2381 2855 2742 
Q 2594 3103 2138 3103 
Q 1681 3103 1420 2742 
Q 1159 2381 1159 1747 
Q 1159 1113 1420 752 
Q 1681 391 2138 391 
Q 2594 391 2855 752 
Q 3116 1113 3116 1747 
z
M 1159 2969 
Q 1341 3281 1617 3432 
Q 1894 3584 2278 3584 
Q 2916 3584 3314 3078 
Q 3713 2572 3713 1747 
Q 3713 922 3314 415 
Q 2916 -91 2278 -91 
Q 1894 -91 1617 61 
Q 1341 213 1159 525 
L 1159 0 
L 581 0 
L 581 4863 
L 1159 4863 
L 1159 2969 
z
" transform="scale(0.015625)"/>
    </defs>
    <use xlink:href="#DejaVuSans-43"/>
    <use xlink:href="#DejaVuSans-6f" transform="translate(69.824219 0)"/>
    <use xlink:href="#DejaVuSans-6d" transform="translate(131.005859 0)"/>
    <use xlink:href="#DejaVuSans-70" transform="translate(228.417969 0)"/>
    <use xlink:href="#DejaVuSans-61" transform="translate(291.894531 0)"/>
    <use xlink:href="#DejaVuSans-72" transform="translate(353.173828 0)"/>
    <use xlink:href="#DejaVuSans-65" transform="translate(392.037109 0)"/>
    <use xlink:href="#DejaVuSans-64" transform="translate(453.560547 0)"/>
    <use xlink:href="#DejaVuSans-20" transform="translate(517.037109 0)"/>
    <use xlink:href="#DejaVuSans-74" transform="translate(548.824219 0)"/>
    <use xlink:href="#DejaVuSans-6f" transform="translate(588.033203 0)"/>
    <use xlink:href="#DejaVuSans-20" transform="translate(649.214844 0)"/>
    <use xlink:href="#DejaVuSans-6f" transform="translate(681.001953 0)"/>
    <use xlink:href="#DejaVuSans-72" transform="translate(742.183594 0)"/>
    <use xlink:href="#DejaVuSans-69" transform="translate(783.296875 0)"/>
    <use xlink:href="#DejaVuSans-67" transform="translate(811.080078 0)"/>
    <use xlink:href="#DejaVuSans-69" transform="translate(874.556641 0)"/>
    <use xlink:href="#DejaVuSans-6e" transform="translate(902.339844 0)"/>
    <use xlink:href="#DejaVuSans-61" transform="translate(965.71875 0)"/>
    <use xlink:href="#DejaVuSans-6c" transform="translate(1026.998047 0)"/>
    <use xlink:href="#DejaVuSans-20" transform="translate(1054.78125 0)"/>
    <use xlink:href="#DejaVuSans-72" transform="translate(1086.568359 0)"/>
    <use xlink:href="#DejaVuSans-65" transform="translate(1125.431641 0)"/>
    <use xlink:href="#DejaVuSans-73" transform="translate(1186.955078 0)"/>
    <use xlink:href="#DejaVuSans-70" transform="translate(1239.054688 0)"/>
    <use xlink:href="#DejaVuSans-6f" transform="translate(1302.53125 0)"/>
    <use xlink:href="#DejaVuSans-6e" transform="translate(1363.712891 0)"/>
    <use xlink:href="#DejaVuSans-73" transform="translate(1427.091797 0)"/>
    <use xlink:href="#DejaVuSans-65" transform="translate(1479.191406 0)"/>
    <use xlink:href="#DejaVuSans-20" transform="translate(1540.714844 0)"/>
    <use xlink:href="#DejaVuSans-77" transform="translate(1572.501953 0)"/>
    <use xlink:href="#DejaVuSans-68" transform="translate(1654.289062 0)"/>
    <use xlink:href="#DejaVuSans-65" transform="translate(1717.667969 0)"/>
    <use xlink:href="#DejaVuSans-6e" transform="translate(1779.191406 0)"/>
    <use xlink:href="#DejaVuSans-20" transform="translate(1842.570312 0)"/>
    <use xlink:href="#DejaVuSans-62" transform="translate(1874.357422 0)"/>
    <use xlink:href="#DejaVuSans-61" transform="translate(1937.833984 0)"/>
    <use xlink:href="#DejaVuSans-73" transform="translate(1999.113281 0)"/>
    <use xlink:href="#DejaVuSans-65" transform="translate(2051.212891 0)"/>
    <use xlink:href="#DejaVuSans-20" transform="translate(2112.736328 0)"/>
    <use xlink:href="#DejaVuSans-69" transform="translate(2144.523438 0)"/>
    <use xlink:href="#DejaVuSans-73" transform="translate(2172.306641 0)"/>
    <use xlink:href="#DejaVuSans-20" transform="translate(2224.40625 0)"/>
    <use xlink:href="#DejaVuSans-72" transform="translate(2256.193359 0)"/>
    <use xlink:href="#DejaVuSans-65" transform="translate(2295.056641 0)"/>
    <use xlink:href="#DejaVuSans-61" transform="translate(2356.580078 0)"/>
    <use xlink:href="#DejaVuSans-73" transform="translate(2417.859375 0)"/>
    <use xlink:href="#DejaVuSans-73" transform="translate(2469.958984 0)"/>
    <use xlink:href="#DejaVuSans-69" transform="translate(2522.058594 0)"/>
    <use xlink:href="#DejaVuSans-67" transform="translate(2549.841797 0)"/>
    <use xlink:href="#DejaVuSans-6e" transform="translate(2613.318359 0)"/>
    <use xlink:href="#DejaVuSans-65" transform="translate(2676.697266 0)"/>
    <use xlink:href="#DejaVuSans-64" transform="translate(2738.220703 0)"/>
   </g>
  </g>
 </g>
</svg>
